<?xml version="1.0" encoding="utf-8"?>
<svg viewBox="230.429 201.44 122.88 114.4243" width="122.88" height="114.4243" xmlns="http://www.w3.org/2000/svg">
  <path class="cls-1" d="M 239.749 201.44 L 343.989 201.44 C 349.129 201.456 353.292 205.619 353.309 210.76 L 353.309 284.38 C 353.281 289.516 349.125 293.672 343.989 293.7 L 314.269 293.7 L 298.109 312.76 C 294.838 316.899 288.56 316.899 285.289 312.76 L 269.429 293.7 L 239.749 293.7 C 234.611 293.678 230.451 289.518 230.429 284.38 L 230.429 210.76 C 230.44 205.617 234.606 201.451 239.749 201.44 Z" style="fill: rgb(247, 138, 80); fill-rule: unset;" transform="matrix(1, 0, 0, 1, 7.105427357601002e-15, 0)"/>
  <path class="cls-2" d="M 276.899 251.33 L 306.839 251.33 C 312.914 251.33 317.839 256.255 317.839 262.33 L 317.839 266.62 C 317.833 267.361 317.23 267.96 316.489 267.96 L 267.259 267.96 C 266.517 267.96 265.914 267.361 265.909 266.62 L 265.909 262.32 C 265.909 256.245 270.834 251.32 276.909 251.32 L 276.899 251.33 Z M 291.899 219 C 302.845 219.023 309.662 230.887 304.169 240.356 C 298.675 249.824 284.992 249.795 279.539 240.304 C 278.3 238.148 277.649 235.706 277.649 233.22 C 277.649 225.366 284.015 219 291.869 219 L 291.899 219 Z" style="fill: rgb(44, 42, 66); fill-rule: nonzero;" transform="matrix(1, 0, 0, 1, 7.105427357601002e-15, 0)"/>
</svg>