<?xml version="1.0" encoding="utf-8"?>
<!-- Generator: Adobe Illustrator 27.5.0, SVG Export Plug-In . SVG Version: 6.00 Build 0)  -->
<svg version="1.1" xmlns="http://www.w3.org/2000/svg" xmlns:xlink="http://www.w3.org/1999/xlink" x="0px" y="0px"
	viewBox="0 0 3710 3710" style="enable-background:new 0 0 3710 3710;" xml:space="preserve">
	<g id="Background">
		<g>
			<g>
				<rect style="fill:transparent;" width="3710" height="3710" />
			</g>
		</g>
	</g>
	<g id="Illustration">
		<g>
			<path style="fill:rgba(144,118,237,0.5);" d="M3202.387,1621.157c-56.287-368.424-101.473-623.039-304.729-762.559
			c-342.842-235.337-725.729,146.705-1211.379-109.65c-239.116-126.219-248.078-272.56-450.589-291.984
			C877.404,422.598,583.99,850.177,558.562,886.846c-154.501,222.795-206.11,494.461-143.476,753.46
			c40.679,168.224,68.169,342.328,60.623,515.188c-13.13,300.845-5.575,581.661,286.389,761.078
			c260.688,160.199,588.771,301.488,901.766,326.234c212.708,16.819,451.249-10.397,656.259-65.774
			C3364.909,2894.801,3279.778,2127.72,3202.387,1621.157z" />
			<g>
				<g>
					<defs>
						<path id="SVGID_1_" d="M862.593,2437.512c141.252-55.714,206.846-236.915,162.914-302.043
						c-22.85-33.875-65.875-22.33-84.703-60.689c-20.861-42.5,21.642-77.679,42.04-174.243
						c10.539-49.893,29.651-140.367-14.045-185.757c-43.333-45.013-105.23-0.809-154.53-46.662
						c-46.617-43.357-8.99-99.358-60.196-173.985c-4.763-6.941-59.301-84.4-121.571-75.816
						c-63.263,8.72-112.162,103.167-99.516,174.237c11.489,64.569,70.402,90.865,57.824,123.655
						c-13.861,36.134-89.943,16.036-107.746,51.789c-25.733,51.678,114.455,131.37,94.853,218.664
						c-11.527,51.332-65.168,46.787-93.678,107.883c-36.796,78.852,7.379,183.235,54.347,242.026
						C606.652,2421.772,740.162,2485.803,862.593,2437.512z" />
					</defs>
					<use xlink:href="#SVGID_1_" style="overflow:visible;fill:#D8DEE8;" />
					<clipPath id="SVGID_00000071559051234908932740000000411317573196437919_">
						<use xlink:href="#SVGID_1_" style="overflow:visible;" />
					</clipPath>
					<g style="clip-path:url(#SVGID_00000071559051234908932740000000411317573196437919_);">
						<path style="fill:#FFFFFF;" d="M780.654,2502.112l4.813,0.017c0.679-186.357-9.141-362.038-29.187-522.165
						c-16.041-128.13-38.628-246.65-67.136-352.266c-48.579-179.982-98.253-261.217-98.748-262.016l-4.09,2.537
						c0.492,0.796,49.885,81.638,98.282,261.07C729.26,1794.909,782.189,2080.778,780.654,2502.112z" />
						<path style="fill:#FFFFFF;" d="M693.193,1645.118c62.682-135.361,46.298-263.296,46.125-264.573l-4.769,0.646
						c0.172,1.263,16.345,127.871-45.723,261.905L693.193,1645.118z" />
						<path style="fill:#FFFFFF;" d="M759.616,2002.861c110.772-118.893,158.11-211.331,178.315-267.941
						c22.007-61.661,17.696-94.696,17.502-96.072l-4.767,0.67c0.046,0.329,4.306,33.58-17.449,94.29
						c-20.104,56.095-67.152,147.739-177.123,265.772L759.616,2002.861z" />
						<path style="fill:#FFFFFF;" d="M782.337,2343.982c235.419-159.011,284.232-319.249,284.697-320.848l-4.621-1.345
						c-0.117,0.402-12.895,41.899-55.766,102.944c-37.752,53.752-107.78,134.732-227.003,215.261L782.337,2343.982z" />
						<path style="fill:#FFFFFF;" d="M702.533,1939.856c15.195,6.837,31.015,12.963,47.463,18.184l1.456-4.587
						c-107.47-34.111-188.45-107.525-237.454-163.105c-53.123-60.252-81.123-113.038-81.398-113.563l-4.262,2.239
						c0.28,0.531,28.548,53.828,82.048,114.507C552.306,1841.074,617.462,1901.575,702.533,1939.856z" />
						<path style="fill:#FFFFFF;" d="M752.107,2271.13c8.204,3.692,16.647,7.145,25.352,10.335l1.656-4.519
						c-110.372-40.457-179.642-124.263-218.322-187.445c-41.943-68.512-57.93-128.127-58.087-128.722l-4.655,1.227
						c0.159,0.601,16.328,60.9,58.637,130.008C592.721,2150.873,655.069,2227.464,752.107,2271.13z" />
					</g>
				</g>
			</g>
			<g>
				<g>
					<defs>
						<path id="SVGID_00000053541665306308555500000013870616212192991402_" d="M2449.696,3088.621
						c-145.843-101.536-171.689-325.582-104.097-387.908c35.157-32.418,81.042-7.669,112.828-46.278
						c35.217-42.776-3.703-94.3-0.897-209.772c1.449-59.662,4.079-167.852,66.08-207.763
						c61.486-39.579,120.059,27.452,188.568-11.476c64.78-36.808,37.028-110.73,115.465-181.914
						c7.296-6.621,90.292-80.13,158.894-53.565c69.697,26.988,99.919,147.734,66.355,225.263
						c-30.494,70.437-104.677,84.5-99.194,125.234c6.043,44.888,98.108,42.514,108.744,88.031
						c15.373,65.792-165.768,118.75-166.982,223.451c-0.713,61.568,61.602,70.855,77.597,148.121
						c20.645,99.722-57.809,206.688-127.15,260.979C2745.419,3139.704,2576.107,3176.627,2449.696,3088.621z" />
					</defs>

					<linearGradient id="SVGID_00000069389113945205097830000003303579913742685099_"
						gradientUnits="userSpaceOnUse" x1="2743.8608" y1="2561.4607" x2="4197.1489" y2="2576.4045">
						<stop offset="0.0036" style="stop-color:#E38DDD" />
						<stop offset="1" style="stop-color:#9571F6" />
					</linearGradient>

					<use xlink:href="#SVGID_00000053541665306308555500000013870616212192991402_"
						style="overflow:visible;fill:url(#SVGID_00000069389113945205097830000003303579913742685099_);" />
					<clipPath id="SVGID_00000130630614311707934310000013401765492182241964_">
						<use xlink:href="#SVGID_00000053541665306308555500000013870616212192991402_"
							style="overflow:visible;" />
					</clipPath>
					<g style="clip-path:url(#SVGID_00000130630614311707934310000013401765492182241964_);">
						<path style="fill:#FFFFFF;" d="M2525.594,3184.283l-5.486-1.278c49.474-212.416,108.025-409.843,174.029-586.799
						c52.816-141.596,110.496-270.483,171.438-383.078c103.853-191.874,182.327-270.996,183.106-271.773l3.974,3.992
						c-0.775,0.773-78.824,79.523-182.321,270.821C2774.805,2392.741,2637.449,2704.032,2525.594,3184.283z" />
						<path style="fill:#FFFFFF;" d="M2856.268,2231.875c-34.889-171.057,18.265-312.339,18.807-313.746l5.257,2.021
						c-0.536,1.393-53.092,141.22-18.544,310.599L2856.268,2231.875z" />
						<path style="fill:#FFFFFF;" d="M2684.165,2621.382c-94.096-165.269-123.084-283.306-130.831-353.224
						c-8.437-76.157,5.38-112.616,5.971-114.131l5.248,2.048c-0.141,0.362-13.958,37.082-5.551,112.087
						c7.771,69.304,36.642,186.359,130.057,350.432L2684.165,2621.382z" />
						<path style="fill:#FFFFFF;" d="M2566.314,3003.744c-225.234-244.566-237.62-440.214-237.719-442.161l5.626-0.285
						c0.025,0.489,3.388,51.194,35.753,132.274c28.501,71.395,86.418,182.5,200.482,306.357L2566.314,3003.744z" />
						<path style="fill:#FFFFFF;" d="M2766.162,2565.021c-19.148,3.69-38.817,6.401-58.956,7.911l-0.421-5.617
						c131.59-9.871,243.609-71.644,314.403-121.728c76.745-54.294,122.865-106.861,123.32-107.385l4.25,3.699
						c-0.462,0.53-47.025,53.604-124.315,108.285C2963.883,2493.027,2873.367,2544.361,2766.162,2565.021z" />
						<path style="fill:#FFFFFF;" d="M2620.384,2928.926c-10.338,1.992-20.885,3.648-31.658,4.935l-0.667-5.593
						c136.605-16.316,238.09-93.081,299.177-154.607c66.24-66.716,100.521-130.299,100.859-130.933l4.97,2.652
						c-0.343,0.641-35.015,64.953-101.832,132.25C2834.326,2834.946,2742.67,2905.361,2620.384,2928.926z" />
					</g>
				</g>
			</g>
			<g>
				<g>

					<linearGradient id="SVGID_00000024717445775541443080000003868329812233973139_"
						gradientUnits="userSpaceOnUse" x1="1464.1914" y1="2688.199" x2="2356.9055" y2="3122.8103">
						<stop offset="0" style="stop-color:#FFC444" />
						<stop offset="0.9964" style="stop-color:#F36F56" />
					</linearGradient>
					<path style="fill:url(#SVGID_00000024717445775541443080000003868329812233973139_);" d="M2004.9,3069.642
					c35.031-24.341,109.354-83.583,142.423-185.003c52.421-160.767-23.395-352.144-171.789-441.951
					c-175.875-106.439-366.057-17.163-389.094-5.873c-131.573,64.483-186.592,178.577-217.305,242.266
					c-53.933,111.841-128.199,351.647-19.088,444.888c63.862,54.572,164.791,36.936,283.406,16.209
					c120.014-20.971,150.794-59.865,158.545-70.536c29.477-40.584,15.671-71.979,27.787-142.476
					c19.611-114.11,91.565-240.052,146.247-236.054c44.546,3.257,76.689,92.679,82.529,154.043
					c9.958,104.626-51.409,181.69-67.756,201.01C1988.837,3053.991,1996.869,3061.817,2004.9,3069.642z" />

					<linearGradient id="SVGID_00000136394510640439672260000003284074533744390552_"
						gradientUnits="userSpaceOnUse" x1="1308.9244" y1="2885.051" x2="1794.2075" y2="2885.051">
						<stop offset="0" style="stop-color:#FFC444" />
						<stop offset="0.9964" style="stop-color:#F36F56" />
					</linearGradient>
					<path style="fill:url(#SVGID_00000136394510640439672260000003284074533744390552_);" d="M1655.449,2903.727
					c-47.808-75.639,103.06-209.325,63.136-268.695c-28.174-41.896-138.199-27.219-212.9,11.746
					c-134.775,70.301-170.624,228.037-183.535,284.846c-10.755,47.322-14.096,92.111-13.041,132.929
					c8.952,23.183,22.255,43.449,40.938,59.415c63.862,54.572,164.791,36.936,283.406,16.209
					c120.014-20.971,150.794-59.865,158.545-70.536c0.771-1.061,1.495-2.113,2.208-3.162c-0.292-39.498-9.36-76.386-34.51-102.554
					C1722.311,2925.029,1678.221,2939.754,1655.449,2903.727z" />

					<linearGradient id="SVGID_00000162317440905287922790000016595010139824400272_"
						gradientUnits="userSpaceOnUse" x1="1418.1639" y1="2782.741" x2="2310.876" y2="3217.3513">
						<stop offset="0" style="stop-color:#FFC444" />
						<stop offset="0.9964" style="stop-color:#F36F56" />
					</linearGradient>
					<path style="fill:url(#SVGID_00000162317440905287922790000016595010139824400272_);" d="M1652.826,3078.378
					c0,0-254.325,20.099-202.936-168.31c51.39-188.408,224.361-331.854,224.361-331.854l-87.812-141.4
					c0,0-410.953,189.405-461.691,494.808c-50.738,305.403,499.74,199.332,499.74,199.332L1652.826,3078.378z" />

					<linearGradient id="SVGID_00000067956382513815383510000001604550733233537199_"
						gradientUnits="userSpaceOnUse" x1="1772.9119" y1="3098.5371" x2="1774.3801" y2="3098.5371">
						<stop offset="0" style="stop-color:#FFC444" />
						<stop offset="0.9964" style="stop-color:#F36F56" />
					</linearGradient>
					<path style="fill:url(#SVGID_00000067956382513815383510000001604550733233537199_);" d="M1783.627,3124.499
					c0,0-15.458-51.724-39.516-63.568c-24.058-11.845-91.285,17.448-91.285,17.448s-30.159,42.106-28.336,52.576
					c1.822,10.47,56.032,12.905,75.048-6.456c19.016-19.361,45.048-22.035,56.274-5.41
					C1767.038,3135.714,1783.627,3124.499,1783.627,3124.499z" />

					<linearGradient id="SVGID_00000150080936170325507950000011436852989743744186_"
						gradientUnits="userSpaceOnUse" x1="2083.71" y1="3200.2542" x2="1725.4502" y2="2974.1394">
						<stop offset="0" style="stop-color:#311944" />
						<stop offset="1" style="stop-color:#A03976" />
					</linearGradient>
					<polygon style="fill:url(#SVGID_00000150080936170325507950000011436852989743744186_);" points="1646.699,3154.751 
					1761.186,3212.797 2210.656,3072.562 2209.45,3049.299 2067.95,3039.706 1652.826,3126.251 				" />

					<linearGradient id="SVGID_00000183951367100947074290000006361805011118841515_"
						gradientUnits="userSpaceOnUse" x1="1652.8262" y1="2390.9595" x2="1884.6655" y2="2390.9595">
						<stop offset="0" style="stop-color:#FFC444" />
						<stop offset="0.9964" style="stop-color:#F36F56" />
					</linearGradient>
					<path style="fill:url(#SVGID_00000183951367100947074290000006361805011118841515_);" d="M1779.224,2307.326l-26.368,56.594
					c-5.458,11.713-15.671,20.528-28.056,24.214l-71.973,21.42c0,0,157.315,67.883,160.235,64.946s71.604-70.695,71.604-70.695
					l-23.53-8.551c-14.223-5.169-24.027-18.279-24.965-33.382l-2.701-43.504L1779.224,2307.326z" />
					<g>
						<g>

							<linearGradient id="SVGID_00000145035792491174310660000005636640490514997423_"
								gradientUnits="userSpaceOnUse" x1="2410.0933" y1="2140.8564" x2="2387.3523"
								y2="2173.2903"
								gradientTransform="matrix(0.9943 0.1063 -0.1063 0.9943 -246.6458 -99.2899)">
								<stop offset="0" style="stop-color:#AA80F9" />
								<stop offset="0.9964" style="stop-color:#6165D7" />
							</linearGradient>
							<path style="fill:url(#SVGID_00000145035792491174310660000005636640490514997423_);" d="M1896.756,2264.227l4.572,0.489
							c18.825,2.012,31.884,24.238,29.169,49.644l-0.152,1.426c-2.715,25.406-20.176,44.371-39.001,42.359l-4.572-0.489
							c-9.496-1.015-14.959-22.752-12.202-48.552C1877.326,2283.304,1887.26,2263.212,1896.756,2264.227z" />

							<linearGradient id="SVGID_00000028303705750295500070000003645075472455430042_"
								gradientUnits="userSpaceOnUse" x1="2368.7214" y1="2192.2419" x2="2412.7727"
								y2="2101.6924"
								gradientTransform="matrix(0.9943 0.1063 -0.1063 0.9943 -246.6458 -99.2899)">
								<stop offset="0" style="stop-color:#AA80F9" />
								<stop offset="0.9964" style="stop-color:#6165D7" />
							</linearGradient>
							<path style="fill:url(#SVGID_00000028303705750295500070000003645075472455430042_);" d="M1863.841,2307.957
							c-3.018,28.239,5.537,52.307,19.564,53.806c14.028,1.499,28.217-20.138,31.234-48.377
							c3.018-28.239-6.278-52.386-20.306-53.885C1880.306,2258.002,1866.859,2279.718,1863.841,2307.957z" />

							<linearGradient id="SVGID_00000001655602071624923990000004407032842781953195_"
								gradientUnits="userSpaceOnUse" x1="2400.8794" y1="2154.8896" x2="2408.356"
								y2="2150.2283"
								gradientTransform="matrix(0.9943 0.1063 -0.1063 0.9943 -246.6458 -99.2899)">
								<stop offset="0" style="stop-color:#444B8C" />
								<stop offset="0.9964" style="stop-color:#3E4177" />
							</linearGradient>
							<polygon style="fill:url(#SVGID_00000001655602071624923990000004407032842781953195_);"
								points="1884.138,2361.841 
							1878.782,2361.269 1889.71,2259.007 1895.067,2259.579 						" />

							<linearGradient id="SVGID_00000042724286450076140090000002491205912579057795_"
								gradientUnits="userSpaceOnUse" x1="2407.696" y1="2130.6238" x2="2384.8311"
								y2="2157.7139"
								gradientTransform="matrix(0.9943 0.1063 -0.1063 0.9943 -246.6458 -99.2899)">
								<stop offset="0" style="stop-color:#AA80F9" />
								<stop offset="0.9964" style="stop-color:#6165D7" />
							</linearGradient>
							<path style="fill:url(#SVGID_00000042724286450076140090000002491205912579057795_);" d="M1858.847,2307.423
							c-3.018,28.239,5.907,52.346,19.935,53.845c14.028,1.499,27.846-20.178,30.864-48.417
							c3.018-28.239-5.907-52.346-19.935-53.845C1875.683,2257.507,1861.865,2279.184,1858.847,2307.423z" />

							<linearGradient id="SVGID_00000121259430916436668880000013178630899193537697_"
								gradientUnits="userSpaceOnUse" x1="2361.1396" y1="2169.3269" x2="2388.9189"
								y2="2169.3269"
								gradientTransform="matrix(0.9943 0.1063 -0.1063 0.9943 -246.6458 -99.2899)">
								<stop offset="0.0036" style="stop-color:#6165D7" />
								<stop offset="1" style="stop-color:#AA80F9" />
							</linearGradient>
							<path
								style="opacity:0.6;fill:url(#SVGID_00000121259430916436668880000013178630899193537697_);"
								d="M1870.436,2308.662
							c-1.641,15.354,3.212,28.462,10.839,29.277c7.627,0.815,15.141-10.971,16.782-26.325c1.641-15.354-3.212-28.462-10.839-29.277
							C1879.59,2281.521,1872.077,2293.307,1870.436,2308.662z" />
						</g>

						<linearGradient id="SVGID_00000057844735254888089020000009001091932831937449_"
							gradientUnits="userSpaceOnUse" x1="5826.9766" y1="-400.8551" x2="5826.9766" y2="-402.3234"
							gradientTransform="matrix(-0.9495 -0.3138 -0.3138 0.9495 8295.8398 1267.5063)">
							<stop offset="0" style="stop-color:#311944" />
							<stop offset="1" style="stop-color:#A03976" />
						</linearGradient>
						<path style="fill:url(#SVGID_00000057844735254888089020000009001091932831937449_);" d="M1886.557,2304.046
						c17.706-11.491,27.892-38.978,19.65-61.578c-7.089-19.437-25.561-28.393-36.607-33.753
						c-31.96-15.503-78.324-16.822-102.858,7.734c-14.515,14.533-8.289,57.69-7.6,65.297c0.785,8.604,5.892,13.291,9.52,20.887
						c5.026,10.536,12.833,27.227,25.419,54.991c3.592-5.562,8.47-12.293,14.929-19.173c2.487-2.65,12.363-12.942,24.459-20.082
						C1857.734,2304.03,1869.796,2314.922,1886.557,2304.046z" />

						<linearGradient id="SVGID_00000070087144475456539340000013485973454642177152_"
							gradientUnits="userSpaceOnUse" x1="-4487.9307" y1="595.6079" x2="-4487.9307" y2="594.1397"
							gradientTransform="matrix(0.9669 0.2551 -0.2551 0.9669 6848.7139 842.1304)">
							<stop offset="0" style="stop-color:#FFC444" />
							<stop offset="0.9964" style="stop-color:#F36F56" />
						</linearGradient>
						<path style="fill:url(#SVGID_00000070087144475456539340000013485973454642177152_);" d="M1772.034,2330.147
						c0,0,9.967,42.58,54.229,55.492c39.751,11.594,74.327-71.347,55.519-98.309c-6.271-8.989-22.057-17.422-36.816-18.554
						c-8.709-0.668-12.501,1.595-26.703,0.227c-13.089-1.255-16.051-3.773-20.696-2.09c-5.807,2.11-12.23,10.066-13.02,37.563
						c-4.924-9.948-12.842-15.928-20.098-15.287c-1.158,0.106-4.408,0.917-6.806,3.054
						C1748.973,2299.971,1753.846,2315.568,1772.034,2330.147z" />

						<linearGradient id="SVGID_00000020399100233592673190000006880457465266498222_"
							gradientUnits="userSpaceOnUse" x1="5819.6128" y1="-400.8985" x2="5819.6128" y2="-402.3669"
							gradientTransform="matrix(-0.9495 -0.3138 -0.3138 0.9495 8295.8398 1267.5063)">
							<stop offset="0" style="stop-color:#311944" />
							<stop offset="1" style="stop-color:#A03976" />
						</linearGradient>
						<path style="fill:url(#SVGID_00000020399100233592673190000006880457465266498222_);" d="M1797.529,2261.216
						c1.41,2.028-6.605,6.79-10.286,16.268c-7.145,18.384,4.658,47.767,23.813,56.787c11.338,5.336,16.892-0.384,36.969,4.592
						c12.447,3.085,21.96,8.174,27.812,11.779c-0.859,22.739-13.557,41.133-30.888,45.526c-18.633,4.724-35.889-8.466-43.097-13.976
						c-4.818-3.684-20.264-15.445-24.072-34.173c-3.965-19.509,8.564-25.903,1.444-40.692c-3.59-7.456-9.94-12.405-13.306-25.55
						c-0.913-3.57-1.311-6.582-1.501-8.578C1777.892,2266.44,1795.487,2258.278,1797.529,2261.216z" />

						<linearGradient id="SVGID_00000010275635256471883900000017260555851915409564_"
							gradientUnits="userSpaceOnUse" x1="5782.231" y1="-400.7485" x2="5782.231" y2="-402.2168"
							gradientTransform="matrix(-0.9495 -0.3138 -0.3138 0.9495 8295.8398 1267.5063)">
							<stop offset="0" style="stop-color:#FFC444" />
							<stop offset="1" style="stop-color:#F36F56" />
						</linearGradient>
						<path style="fill:url(#SVGID_00000010275635256471883900000017260555851915409564_);" d="M1859.106,2353.165
						c0,0-9.859,1.249-24.109-4.771c-0.691-0.293-1.539-0.372-1.749-0.048c-0.787,1.219,6.487,10.578,15.866,11.323
						c6.665,0.525,13.317-3.38,12.981-5.105C1861.951,2353.837,1860.544,2353.42,1859.106,2353.165z" />
						<g>

							<linearGradient id="SVGID_00000168816415982613822700000016163755201826416541_"
								gradientUnits="userSpaceOnUse" x1="2250.0403" y1="1840.7605" x2="2292.7495"
								y2="1752.9691" gradientTransform="matrix(1.0295 0.11 -0.1166 1.0914 -281.2317 40.1212)">
								<stop offset="0" style="stop-color:#AA80F9" />
								<stop offset="0.9964" style="stop-color:#6165D7" />
							</linearGradient>
							<path style="fill:url(#SVGID_00000168816415982613822700000016163755201826416541_);"
								d="M1779.432,2267.476l-5.809-0.677
							l2.053-17.958c3.54-30.967,27.759-54.032,55.138-52.51l29.308,1.629c15.324,0.852,29.125,8.571,38.869,21.735
							c9.744,13.164,14.089,29.966,12.235,47.31l-1.535,14.363l-5.816-0.622l1.535-14.362c1.659-15.521-2.23-30.558-10.95-42.338
							c-8.72-11.781-21.078-18.688-34.784-19.451l-29.308-1.629c-24.272-1.349-45.744,19.099-48.882,46.553L1779.432,2267.476z" />
							<g>

								<linearGradient id="SVGID_00000160190380724493956030000012026107305733046157_"
									gradientUnits="userSpaceOnUse" x1="2278.9924" y1="1731.241" x2="2269.7896"
									y2="1761.7869"
									gradientTransform="matrix(1.0295 0.11 -0.1166 1.0914 -281.2317 40.1212)">
									<stop offset="0" style="stop-color:#AA80F9" />
									<stop offset="0.9964" style="stop-color:#6165D7" />
								</linearGradient>
								<path style="fill:url(#SVGID_00000160190380724493956030000012026107305733046157_);" d="M1897.843,2234.945
								c-2.365-0.253-4.605-1.591-6.097-3.916c-7.61-11.858-19.465-19.074-32.516-19.801l-29.308-1.63
								c-10.236-0.569-20.259,3.295-28.224,10.88c-3.766,3.586-9.3,3.111-12.362-1.063c-3.062-4.173-2.491-10.463,1.274-14.049
								c11.471-10.925,25.907-16.49,40.648-15.67l29.308,1.629c18.27,1.014,34.844,11.11,45.488,27.696
								c2.818,4.391,1.9,10.638-2.052,13.954C1902.144,2234.537,1899.944,2235.169,1897.843,2234.945z" />

								<linearGradient id="SVGID_00000027563764762470234810000004105320260459954309_"
									gradientUnits="userSpaceOnUse" x1="2279.0361" y1="1731.0963" x2="2269.8103"
									y2="1761.7178"
									gradientTransform="matrix(1.0295 0.11 -0.1166 1.0914 -281.2317 40.1212)">
									<stop offset="0" style="stop-color:#AA80F9" />
									<stop offset="0.9964" style="stop-color:#6165D7" />
								</linearGradient>
								<path
									style="opacity:0.3;fill:url(#SVGID_00000027563764762470234810000004105320260459954309_);"
									d="M1887.71,2213.464
								c-20.683-9.383-20.101-15.915-31.254-17.608c-20.853-3.167-31.71,18.325-51.8,13.191c-4.709-1.203-8.571-3.525-11.57-5.912
								c-0.839,0.718-1.666,1.46-2.477,2.232c-3.766,3.586-4.336,9.876-1.274,14.049c3.062,4.173,8.597,4.649,12.362,1.063
								c7.965-7.585,17.988-11.449,28.224-10.88l29.308,1.63c13.051,0.727,24.906,7.943,32.516,19.801
								c1.492,2.325,3.732,3.663,6.097,3.916c2.101,0.224,4.301-0.408,6.16-1.969c3.581-3.005,4.672-8.419,2.746-12.676
								C1901.16,2218.793,1894.683,2216.628,1887.71,2213.464z" />
							</g>
						</g>
						<g>
							<g>

								<linearGradient id="SVGID_00000101816345220310086230000008355915586721582505_"
									gradientUnits="userSpaceOnUse" x1="2238.7317" y1="2168.4844" x2="2290.3845"
									y2="2168.4844"
									gradientTransform="matrix(0.9943 0.1063 -0.1063 0.9943 -246.6458 -99.2899)">
									<stop offset="0" style="stop-color:#AA80F9" />
									<stop offset="0.9964" style="stop-color:#6165D7" />
								</linearGradient>
								<path style="fill:url(#SVGID_00000101816345220310086230000008355915586721582505_);" d="M1800.174,2300.301
								c-3.051,28.55-17.021,50.466-31.203,48.95c-14.182-1.516-23.206-25.889-20.155-54.439
								c3.051-28.55,17.021-50.466,31.203-48.951C1794.201,2247.377,1803.225,2271.75,1800.174,2300.301z" />

								<linearGradient id="SVGID_00000083808916263962076580000010699194820825567412_"
									gradientUnits="userSpaceOnUse" x1="2243.7192" y1="2177.6545" x2="2202.2595"
									y2="2201.7764"
									gradientTransform="matrix(0.9943 0.1063 -0.1063 0.9943 -246.6458 -99.2899)">
									<stop offset="0" style="stop-color:#AA80F9" />
									<stop offset="0.9964" style="stop-color:#6165D7" />
								</linearGradient>
								<path style="fill:url(#SVGID_00000083808916263962076580000010699194820825567412_);" d="M1795.125,2299.761
								c-3.051,28.55-17.021,50.466-31.204,48.95c-14.182-1.515-23.206-25.888-20.155-54.439
								c3.051-28.55,17.021-50.466,31.204-48.95C1789.152,2246.838,1798.175,2271.211,1795.125,2299.761z" />

								<linearGradient id="SVGID_00000059289578976291072610000006862420841885265047_"
									gradientUnits="userSpaceOnUse" x1="2214.252" y1="2168.4849" x2="2271.0422"
									y2="2168.4849"
									gradientTransform="matrix(0.9943 0.1063 -0.1063 0.9943 -246.6458 -99.2899)">
									<stop offset="0" style="stop-color:#AA80F9" />
									<stop offset="0.9964" style="stop-color:#6165D7" />
								</linearGradient>
								<path style="fill:url(#SVGID_00000059289578976291072610000006862420841885265047_);" d="M1768.605,2249.158l-4.622-0.494
								c-19.032-2.034-36.686,17.14-39.431,42.826l-0.154,1.442c-2.745,25.686,10.459,48.157,29.491,50.191l4.622,0.494
								c9.601,1.026,19.644-19.288,22.431-45.372C1783.729,2272.162,1778.206,2250.185,1768.605,2249.158z" />
							</g>

							<linearGradient id="SVGID_00000183932719802085847330000007394544155707433648_"
								gradientUnits="userSpaceOnUse" x1="2214.252" y1="2167.7568" x2="2248.4028"
								y2="2167.7568"
								gradientTransform="matrix(0.9943 0.1063 -0.1063 0.9943 -246.6458 -99.2899)">
								<stop offset="0" style="stop-color:#AA80F9" />
								<stop offset="0.9964" style="stop-color:#6165D7" />
							</linearGradient>
							<path style="fill:url(#SVGID_00000183932719802085847330000007394544155707433648_);" d="M1758.509,2295.115
							c-2.012,18.827-11.245,33.278-20.621,32.276c-9.377-1.002-15.347-17.077-13.335-35.905
							c2.012-18.828,11.244-33.278,20.621-32.276C1754.55,2260.213,1760.521,2276.288,1758.509,2295.115z" />
						</g>
					</g>
				</g>
				<g>

					<linearGradient id="SVGID_00000116221207813576169880000001054165938850785956_"
						gradientUnits="userSpaceOnUse" x1="664.0673" y1="2482.1985" x2="1202.4119" y2="2482.1985">
						<stop offset="0" style="stop-color:#444B8C" />
						<stop offset="0.9964" style="stop-color:#26264F" />
					</linearGradient>
					<polygon style="fill:url(#SVGID_00000116221207813576169880000001054165938850785956_);" points="664.067,2507.613 
					1083.929,2393.408 1202.412,2417.9 1202.412,2437.154 815.3,2570.989 				" />

					<linearGradient id="SVGID_00000041276573967193026700000010614943133015870872_"
						gradientUnits="userSpaceOnUse" x1="748.6532" y1="2747.7954" x2="1012.9294" y2="1919.7284">
						<stop offset="0" style="stop-color:#311944" />
						<stop offset="1" style="stop-color:#A03976" />
					</linearGradient>
					<path style="fill:url(#SVGID_00000041276573967193026700000010614943133015870872_);" d="M740.418,2456.463
					c-35.835,15.663-84.359,37.204-149.764,35.239c-41.645-1.251-64.395-1.935-79.287-16.151
					c-49.599-47.348,36.7-202.555,211.322-511.035c55.844-98.654,92.557-158.062,166.225-185.952
					c83.638-31.665,164.073-3.461,193.613,6.897c20.843,7.309,190.122,69.721,221.71,230.52
					c25.814,131.402-50.702,275.665-190.876,343.577c-8.321-11.746-16.64-23.492-24.961-35.239
					c12.827-20.647,37.471-66.687,38.175-129.208c0.754-67.01-26.066-146.321-48.453-145.359
					c-35.683,1.534,6.358,204.155-115.994,312.743C942.324,2380.069,954.696,2362.804,740.418,2456.463z" />

					<linearGradient id="SVGID_00000152223637676011897230000003235475653882835843_"
						gradientUnits="userSpaceOnUse" x1="738.7835" y1="2744.6453" x2="1003.0594" y2="1916.5793">
						<stop offset="0" style="stop-color:#311944" />
						<stop offset="1" style="stop-color:#A03976" />
					</linearGradient>
					<path style="opacity:0.3;fill:url(#SVGID_00000152223637676011897230000003235475653882835843_);" d="M1241.1,2112.886
					c-7.693-53.659-31.613-220.522-135.081-261.354c-81.13-32.016-161.372,33.102-199.686-7.341
					c-15.503-16.364-16.781-42.241-13.067-67.183c-1.451,0.514-2.9,1.004-4.353,1.554c-73.668,27.891-110.38,87.298-166.225,185.952
					c-174.622,308.481-260.921,463.688-211.322,511.035c14.892,14.216,37.642,14.9,79.287,16.151
					c65.406,1.966,113.929-19.575,149.764-35.239c214.278-93.659,201.907-76.394,221.71-93.97
					c122.352-108.588,80.311-311.209,115.994-312.743c22.387-0.962,49.207,78.35,48.453,145.359
					c-0.704,62.522-25.348,108.561-38.175,129.208c8.321,11.746,16.64,23.492,24.961,35.239
					c51.969-25.178,95.163-60.867,127.661-102.488C1247.048,2214.525,1248.686,2165.797,1241.1,2112.886z" />

					<linearGradient id="SVGID_00000100362240352493786470000005931723502237992351_"
						gradientUnits="userSpaceOnUse" x1="463.0197" y1="2656.6365" x2="727.2952" y2="1828.5719">
						<stop offset="0" style="stop-color:#311944" />
						<stop offset="1" style="stop-color:#A03976" />
					</linearGradient>
					<path style="fill:url(#SVGID_00000100362240352493786470000005931723502237992351_);" d="M658.194,2437.154l28.135-11.639
					c0,0-157.343-159.288,137.78-484.097c0,0,145.374-186.256,73.05-170.09c-93.695,20.943-246.914,65.737-388.299,258.708
					C367.475,2223.007,448.568,2391.879,658.194,2437.154z" />

					<linearGradient id="SVGID_00000004529627733071115870000000602864792331036578_"
						gradientUnits="userSpaceOnUse" x1="658.1658" y1="2448.5049" x2="823.0765" y2="2448.5049">
						<stop offset="0" style="stop-color:#FFC444" />
						<stop offset="0.9964" style="stop-color:#F36F56" />
					</linearGradient>
					<path style="fill:url(#SVGID_00000004529627733071115870000000602864792331036578_);" d="M658.194,2437.154
					c0,0,15.579-19.659,52.572-22.199c36.993-2.54,95.85,22.04,107.47,39.647c11.62,17.606,0.533,28.372-14.416,27.597
					c-14.949-0.775-35.505-21.331-63.402-25.736C712.521,2452.058,656.726,2493.569,658.194,2437.154z" />

					<linearGradient id="SVGID_00000175318200149118855730000007044161661185030029_"
						gradientUnits="userSpaceOnUse" x1="897.1605" y1="1756.6268" x2="1073.3481" y2="1756.6268">
						<stop offset="0" style="stop-color:#FFC444" />
						<stop offset="0.9964" style="stop-color:#F36F56" />
					</linearGradient>
					<path style="fill:url(#SVGID_00000175318200149118855730000007044161661185030029_);" d="M1045.719,1782.58
					c-8.737-6.859-10.555-19.367-4.131-28.429l18.911-26.682l-19.727-36.466l-69.419,51.965
					c-18.43,13.795-39.939,22.898-62.673,26.522l-11.52,1.837c0,0,66.868,36.281,101.156,47.965
					c34.288,11.684,75.031-15.024,75.031-15.024L1045.719,1782.58z" />
					<g>
						<g>

							<linearGradient id="SVGID_00000015327279627633550350000001331212483101450128_"
								gradientUnits="userSpaceOnUse" x1="494.2262" y1="1699.4569" x2="471.4846" y2="1731.8917"
								gradientTransform="matrix(0.9799 -0.1993 0.1993 0.9799 333.3824 65.2842)">
								<stop offset="0" style="stop-color:#AA80F9" />
								<stop offset="0.9964" style="stop-color:#6165D7" />
							</linearGradient>
							<path style="fill:url(#SVGID_00000015327279627633550350000001331212483101450128_);" d="M1125.737,1619.424l4.506-0.916
							c18.552-3.773,37.719,13.466,42.811,38.504l0.286,1.405c5.092,25.038-5.82,48.394-24.372,52.166l-4.506,0.917
							c-9.359,1.903-21.137-17.166-26.308-42.592C1112.983,1643.482,1116.378,1621.328,1125.737,1619.424z" />

							<linearGradient id="SVGID_00000092423260421778121140000006205351804052801427_"
								gradientUnits="userSpaceOnUse" x1="452.8533" y1="1750.843" x2="496.9058" y2="1660.2906"
								gradientTransform="matrix(0.9799 -0.1993 0.1993 0.9799 333.3824 65.2842)">
								<stop offset="0" style="stop-color:#AA80F9" />
								<stop offset="0.9964" style="stop-color:#6165D7" />
							</linearGradient>
							<path style="fill:url(#SVGID_00000092423260421778121140000006205351804052801427_);" d="M1107.58,1671.059
							c5.66,27.83,21.09,48.186,34.914,45.375c13.825-2.812,20.809-27.725,15.15-55.556c-5.66-27.83-21.82-48.037-35.644-45.226
							C1108.175,1618.463,1101.921,1643.229,1107.58,1671.059z" />

							<linearGradient id="SVGID_00000012463328506736941670000006395915647403355567_"
								gradientUnits="userSpaceOnUse" x1="485.0137" y1="1713.4884" x2="492.491" y2="1708.8265"
								gradientTransform="matrix(0.9799 -0.1993 0.1993 0.9799 333.3824 65.2842)">
								<stop offset="0" style="stop-color:#444B8C" />
								<stop offset="0.9964" style="stop-color:#3E4177" />
							</linearGradient>
							<polygon style="fill:url(#SVGID_00000012463328506736941670000006395915647403355567_);"
								points="1143.216,1716.286 
							1137.938,1717.36 1117.443,1616.578 1122.721,1615.505 						" />

							<linearGradient id="SVGID_00000073000681721392209650000005301004181971491714_"
								gradientUnits="userSpaceOnUse" x1="491.8294" y1="1689.2223" x2="468.9634" y2="1716.3135"
								gradientTransform="matrix(0.9799 -0.1993 0.1993 0.9799 333.3824 65.2842)">
								<stop offset="0" style="stop-color:#AA80F9" />
								<stop offset="0.9964" style="stop-color:#6165D7" />
							</linearGradient>
							<path style="fill:url(#SVGID_00000073000681721392209650000005301004181971491714_);" d="M1102.659,1672.059
							c5.66,27.83,21.454,48.112,35.279,45.3c13.825-2.811,20.444-27.651,14.784-55.481c-5.66-27.83-21.455-48.112-35.279-45.3
							C1103.618,1619.39,1096.999,1644.229,1102.659,1672.059z" />

							<linearGradient id="SVGID_00000145049234858743960600000012128661493957684360_"
								gradientUnits="userSpaceOnUse" x1="445.2718" y1="1727.9269" x2="473.0507" y2="1727.9269"
								gradientTransform="matrix(0.9799 -0.1993 0.1993 0.9799 333.3824 65.2842)">
								<stop offset="0.0036" style="stop-color:#6165D7" />
								<stop offset="1" style="stop-color:#AA80F9" />
							</linearGradient>
							<path
								style="opacity:0.6;fill:url(#SVGID_00000145049234858743960600000012128661493957684360_);"
								d="M1114.08,1669.737
							c3.077,15.132,11.666,26.16,19.182,24.631c7.517-1.528,11.116-15.035,8.038-30.167c-3.077-15.132-11.665-26.16-19.182-24.631
							C1114.601,1641.099,1111.003,1654.605,1114.08,1669.737z" />
						</g>
						<g>

							<linearGradient id="SVGID_00000037669337488126512080000015867032506015042488_"
								gradientUnits="userSpaceOnUse" x1="1119.6625" y1="1841.375" x2="1023.9001"
								y2="1598.156">
								<stop offset="0" style="stop-color:#311944" />
								<stop offset="1" style="stop-color:#6B3976" />
							</linearGradient>
							<path style="fill:url(#SVGID_00000037669337488126512080000015867032506015042488_);" d="M1070.404,1730.939
							c-6.652,1.866-20.86,5.3-39.642,5.009c-17.272-0.268-48.749-1.054-69.208-23.091c-3.464-3.732-11.782-12.931-14.225-27.341
							c-0.704-4.149-3.264-19.244,5.139-30.834c9.068-12.507,20.526-6.622,31.568-17.619c15.715-15.652,3.106-38.129,16.151-46.985
							c11.495-7.804,23.131,8.4,48.453,2.937c13.774-2.972,13.718-8.497,32.302-13.214c12.344-3.134,27.878-7.077,36.129,0.474
							c7.964,7.288,0.644,17.506,8.402,32.082c7.804,14.662,19.167,11.753,24.898,22.692c10.614,20.258-13.795,58.013-39.967,77.225
							C1094.312,1724.084,1077.353,1728.99,1070.404,1730.939z" />

							<linearGradient id="SVGID_00000144296256403823984540000014743768930291662997_"
								gradientUnits="userSpaceOnUse" x1="4827.3906" y1="-158.1641" x2="4823.1421" y2="184.133"
								gradientTransform="matrix(0.9971 -0.0753 0.0753 0.9971 -3734.9658 2194.3374)">
								<stop offset="0" style="stop-color:#FFC444" />
								<stop offset="0.9964" style="stop-color:#F36F56" />
							</linearGradient>
							<path style="fill:url(#SVGID_00000144296256403823984540000014743768930291662997_);" d="M1030.472,1732.641
							c0,0,21.809,32.83,66.072,28.232c39.552-4.111,46.342-86.487,21.346-102.862c-8.346-5.465-25.184-7.185-38.953-3.057
							c-8.137,2.44-10.926,5.674-24.299,9.426c-12.346,3.467-15.805,2.348-19.559,5.396c-4.697,3.816-8.219,12.836-0.766,36.572
							c-7.477-6.771-16.527-9.11-23.004-6.024c-1.034,0.494-3.783,2.323-5.352,4.987
							C1000.282,1714.953,1009.415,1726.575,1030.472,1732.641z" />
						</g>
						<g>

							<linearGradient id="SVGID_00000007395962471161144940000002407848499185784988_"
								gradientUnits="userSpaceOnUse" x1="399.8301" y1="1437.3629" x2="442.5402" y2="1349.5699"
								gradientTransform="matrix(1.0146 -0.2063 0.2187 1.0756 341.89 209.5301)">
								<stop offset="0" style="stop-color:#AA80F9" />
								<stop offset="0.9964" style="stop-color:#6165D7" />
							</linearGradient>
							<path style="fill:url(#SVGID_00000007395962471161144940000002407848499185784988_);"
								d="M1014.883,1657.986l-5.742,1.111
							l-3.472-17.738c-5.986-30.588,10.128-59.896,36.685-66.721l28.429-7.306c14.865-3.82,30.353-0.634,43.621,8.969
							c13.267,9.603,22.488,24.305,25.964,41.398l1.906,9.37l-6.744-3.816l-0.892-4.389c-3.111-15.297-11.363-28.454-23.236-37.048
							c-11.874-8.594-25.741-11.442-39.037-8.027l-28.43,7.306c-23.544,6.051-37.83,32.034-32.523,59.152L1014.883,1657.986z" />
							<g>

								<linearGradient id="SVGID_00000012439789707789379070000011546704578205370270_"
									gradientUnits="userSpaceOnUse" x1="429.6566" y1="1328.2664" x2="420.4532"
									y2="1358.8138"
									gradientTransform="matrix(1.0146 -0.2063 0.2187 1.0756 341.89 209.5301)">
									<stop offset="0" style="stop-color:#AA80F9" />
									<stop offset="0.9964" style="stop-color:#6165D7" />
								</linearGradient>
								<path style="fill:url(#SVGID_00000012439789707789379070000011546704578205370270_);" d="M1117.922,1591.184
								c-2.331,0.474-4.871-0.125-6.995-1.89c-10.839-9.003-24.32-12.298-36.981-9.045l-28.43,7.306
								c-9.929,2.552-18.315,9.265-23.615,18.903c-2.505,4.557-7.924,5.776-12.105,2.724c-4.18-3.053-5.538-9.221-3.032-13.777
								c7.632-13.881,19.71-23.549,34.01-27.224l28.429-7.306c17.722-4.556,36.572,0.057,51.732,12.65
								c4.014,3.334,5.026,9.567,2.262,13.922C1121.898,1589.495,1119.992,1590.763,1117.922,1591.184z" />

								<linearGradient id="SVGID_00000179634522700134448010000015185153482565406394_"
									gradientUnits="userSpaceOnUse" x1="429.7001" y1="1328.1221" x2="420.474"
									y2="1358.7449"
									gradientTransform="matrix(1.0146 -0.2063 0.2187 1.0756 341.89 209.5301)">
									<stop offset="0" style="stop-color:#AA80F9" />
									<stop offset="0.9964" style="stop-color:#6165D7" />
								</linearGradient>
								<path
									style="opacity:0.3;fill:url(#SVGID_00000179634522700134448010000015185153482565406394_);"
									d="M1101.769,1573.771
								c-22.551-2.692-23.971-9.094-35.115-7.337c-20.835,3.285-24.687,27.054-45.389,28.232c-4.853,0.277-9.236-0.769-12.816-2.139
								c-0.583,0.938-1.147,1.896-1.686,2.877c-2.505,4.557-1.148,10.725,3.032,13.777c4.18,3.052,9.6,1.833,12.105-2.724
								c5.299-9.638,13.686-16.351,23.615-18.903l28.43-7.306c12.66-3.253,26.141,0.043,36.981,9.045
								c2.125,1.765,4.665,2.364,6.995,1.89c2.071-0.421,3.976-1.689,5.277-3.738c2.506-3.947,1.908-9.437-1.215-12.913
								C1116.201,1574.785,1109.372,1574.679,1101.769,1573.771z" />
							</g>
						</g>
						<g>
							<g>

								<linearGradient id="SVGID_00000173139191091196245130000002469537341093227707_"
									gradientUnits="userSpaceOnUse" x1="322.8632" y1="1727.0767" x2="374.5162"
									y2="1727.0767"
									gradientTransform="matrix(0.9799 -0.1993 0.1993 0.9799 333.3824 65.2842)">
									<stop offset="0" style="stop-color:#AA80F9" />
									<stop offset="0.9964" style="stop-color:#6165D7" />
								</linearGradient>
								<path style="fill:url(#SVGID_00000173139191091196245130000002469537341093227707_);" d="M1044.577,1683.006
								c5.722,28.137-0.97,53.251-14.947,56.093c-13.977,2.842-29.946-17.663-35.668-45.8c-5.722-28.137,0.97-53.25,14.947-56.093
								C1022.886,1634.364,1038.855,1654.869,1044.577,1683.006z" />

								<linearGradient id="SVGID_00000139281762308468250040000012499336961666720939_"
									gradientUnits="userSpaceOnUse" x1="327.8499" y1="1736.2468" x2="286.3879"
									y2="1760.3701"
									gradientTransform="matrix(0.9799 -0.1993 0.1993 0.9799 333.3824 65.2842)">
									<stop offset="0" style="stop-color:#AA80F9" />
									<stop offset="0.9964" style="stop-color:#6165D7" />
								</linearGradient>
								<path style="fill:url(#SVGID_00000139281762308468250040000012499336961666720939_);" d="M1039.601,1684.018
								c5.722,28.137-0.97,53.251-14.947,56.093c-13.977,2.842-29.946-17.663-35.668-45.8c-5.722-28.137,0.97-53.25,14.947-56.093
								C1017.91,1635.376,1033.879,1655.881,1039.601,1684.018z" />

								<linearGradient id="SVGID_00000077321589344339994470000001877812313583499909_"
									gradientUnits="userSpaceOnUse" x1="298.3831" y1="1727.0762" x2="355.1738"
									y2="1727.0762"
									gradientTransform="matrix(0.9799 -0.1993 0.1993 0.9799 333.3824 65.2842)">
									<stop offset="0" style="stop-color:#AA80F9" />
									<stop offset="0.9964" style="stop-color:#6165D7" />
								</linearGradient>
								<path style="fill:url(#SVGID_00000077321589344339994470000001877812313583499909_);" d="M999.026,1643.799l-4.556,0.926
								c-18.757,3.814-29.789,27.428-24.641,52.742l0.289,1.421c5.148,25.314,24.526,42.743,43.283,38.929l4.555-0.927
								c9.462-1.924,12.894-24.323,7.667-50.03C1020.396,1661.154,1008.488,1641.875,999.026,1643.799z" />
							</g>

							<linearGradient id="SVGID_00000073706890122276262250000005053429528703616903_"
								gradientUnits="userSpaceOnUse" x1="298.3834" y1="1726.3467" x2="332.5344" y2="1726.3467"
								gradientTransform="matrix(0.9799 -0.1993 0.1993 0.9799 333.3824 65.2842)">
								<stop offset="0" style="stop-color:#AA80F9" />
								<stop offset="0.9964" style="stop-color:#6165D7" />
							</linearGradient>
							<path style="fill:url(#SVGID_00000073706890122276262250000005053429528703616903_);" d="M1003.294,1690.657
							c3.773,18.555-0.659,35.12-9.9,37c-9.241,1.879-19.792-11.639-23.565-30.194c-3.773-18.555,0.659-35.12,9.9-36.999
							C988.97,1658.584,999.521,1672.103,1003.294,1690.657z" />
						</g>
					</g>
				</g>
				<g>

					<linearGradient id="SVGID_00000106145754151829915910000014151794440337762482_"
						gradientUnits="userSpaceOnUse" x1="-1024.9664" y1="2756.8667" x2="-81.7529" y2="2756.8667"
						gradientTransform="matrix(-1 0 0 1 1755.9615 0)">
						<stop offset="0" style="stop-color:#AA80F9" />
						<stop offset="0.9964" style="stop-color:#6165D7" />
					</linearGradient>
					<path style="fill:url(#SVGID_00000106145754151829915910000014151794440337762482_);" d="M1837.714,3201.361l48.734-643.069
					c0.771-10.176,9.482-19.664,21.031-22.911l834.12-234.474c7.469-2.101,21.786-0.044,27.47,3.483
					c5.683,3.527,12.131,2.766,11.85,9.325l-34.864,594.283c-0.58,9.884-8.709,19.257-19.839,22.871l-870.579,282.803
					L1837.714,3201.361z" />

					<linearGradient id="SVGID_00000064336978170330147620000003051343562198995889_"
						gradientUnits="userSpaceOnUse" x1="-375.2851" y1="2475.1877" x2="-862.3645" y2="3215.3572"
						gradientTransform="matrix(-1 0 0 1 1755.9615 0)">
						<stop offset="0" style="stop-color:#AA80F9" />
						<stop offset="0.9964" style="stop-color:#6165D7" />
					</linearGradient>
					<path style="fill:url(#SVGID_00000064336978170330147620000003051343562198995889_);"
						d="M1855.637,3213.672l50.502-648.451
					c0.79-10.164,9.495-19.631,21.026-22.871l834.158-234.485c7.469-2.1,15.1-1.272,20.785,2.255
					c5.684,3.526,8.818,9.378,8.539,15.94l-25.112,588.391c-0.432,10.114-8.813,19.756-20.259,23.306L1855.637,3213.672z" />

					<linearGradient id="SVGID_00000018218089185671551420000017922251673884536194_"
						gradientUnits="userSpaceOnUse" x1="-1017.1472" y1="2975.3362" x2="-99.6758" y2="2975.3362"
						gradientTransform="matrix(-1 0 0 1 1755.9615 0)">
						<stop offset="0" style="stop-color:#AA80F9" />
						<stop offset="0.9964" style="stop-color:#6165D7" />
					</linearGradient>
					<path style="opacity:0.3;fill:url(#SVGID_00000018218089185671551420000017922251673884536194_);" d="M1855.637,3213.671
					l889.638-275.913c11.447-3.551,19.828-13.192,20.259-23.306l7.574-177.451c-264.094,168.517-596.622,233.588-906.118,330.905
					L1855.637,3213.671z" />
					<path style="fill:#FFFFFF;" d="M2298.321,3233.419l-31.56,19.599c0,0-149.825-66.442-158.796-70.428
					c-1.426-0.632-7.584-8.303,0-11.46c40.148-16.712,193.344-56.311,193.344-56.311l79.731,37.873L2298.321,3233.419z" />

					<linearGradient id="SVGID_00000056408848547954568340000001430079479274278567_"
						gradientUnits="userSpaceOnUse" x1="-393.4088" y1="3099.1045" x2="-644.1093" y2="3249.5251"
						gradientTransform="matrix(-1 0 0 1 1755.9615 0)">
						<stop offset="0" style="stop-color:#AA80F9" />
						<stop offset="0.9964" style="stop-color:#6165D7" />
					</linearGradient>
					<path style="fill:url(#SVGID_00000056408848547954568340000001430079479274278567_);" d="M2298.321,3221.957l-31.56,19.6
					c0,0-149.825-66.44-158.796-70.427c-8.969-3.987,193.344-67.771,193.344-67.771l79.731,37.872L2298.321,3221.957z" />
					<path style="fill:#FFFFFF;"
						d="M2454.126,2725.473c0,0,75.744,405.293,83.718,427.883c7.36,20.856-207.162,88.5-258.459,101.324
					c-4.266,1.067-10.622-0.801-12.623-1.661c-14.619,1.33,53.486-489.342,53.486-489.342l4.982-0.996L2454.126,2725.473z" />

					<linearGradient id="SVGID_00000023960684836647786920000001171774198265447046_"
						gradientUnits="userSpaceOnUse" x1="-563.6417" y1="2791.8604" x2="-745.1023" y2="3555.9063"
						gradientTransform="matrix(-1 0 0 1 1755.9615 0)">
						<stop offset="0" style="stop-color:#AA80F9" />
						<stop offset="0.9964" style="stop-color:#6165D7" />
					</linearGradient>
					<path style="fill:url(#SVGID_00000023960684836647786920000001171774198265447046_);" d="M2454.126,2725.473
					c0,0,89.032,406.623,97.005,429.213c7.972,22.589-248.491,95.677-271.083,99.663c-14.615,1.328,45.181-491.668,45.181-491.668
					L2454.126,2725.473z" />
				</g>
				<g>
					<g>

						<linearGradient id="SVGID_00000142859286190327623610000007525109697467492992_"
							gradientUnits="userSpaceOnUse" x1="169.3545" y1="2172.3118" x2="926.3823" y2="2172.3118"
							gradientTransform="matrix(-1 0 0 1 1755.9615 0)">
							<stop offset="0" style="stop-color:#AA80F9" />
							<stop offset="0.9964" style="stop-color:#6165D7" />
						</linearGradient>
						<path style="fill:url(#SVGID_00000142859286190327623610000007525109697467492992_);" d="M829.579,2529.065l39.114-516.13
						c0.619-8.167,7.61-15.782,16.879-18.389l669.469-188.19c5.995-1.686,17.486-0.036,22.048,2.796
						c4.561,2.831,9.736,2.22,9.511,7.484l-27.981,476.975c-0.466,7.933-6.99,15.456-15.923,18.356l-698.731,226.979
						L829.579,2529.065z" />

						<linearGradient id="SVGID_00000093883062905756479900000002956715554581075131_"
							gradientUnits="userSpaceOnUse" x1="690.7921" y1="1946.2345" x2="299.8596" y2="2540.2986"
							gradientTransform="matrix(-1 0 0 1 1755.9615 0)">
							<stop offset="0" style="stop-color:#AA80F9" />
							<stop offset="0.9964" style="stop-color:#6165D7" />
						</linearGradient>
						<path style="fill:url(#SVGID_00000093883062905756479900000002956715554581075131_);" d="M843.964,2538.946l40.533-520.45
						c0.634-8.158,7.62-15.756,16.875-18.356l669.499-188.199c5.995-1.686,12.119-1.021,16.682,1.81
						c4.562,2.83,7.078,7.527,6.853,12.794l-20.155,472.245c-0.347,8.118-7.073,15.856-16.26,18.706L843.964,2538.946z" />

						<linearGradient id="SVGID_00000067215743328786076920000012072196608993793932_"
							gradientUnits="userSpaceOnUse" x1="175.63" y1="2347.6563" x2="911.9973" y2="2347.6563"
							gradientTransform="matrix(-1 0 0 1 1755.9615 0)">
							<stop offset="0" style="stop-color:#AA80F9" />
							<stop offset="0.9964" style="stop-color:#6165D7" />
						</linearGradient>
						<path style="opacity:0.3;fill:url(#SVGID_00000067215743328786076920000012072196608993793932_);"
							d="M843.964,2538.945
						l714.028-221.449c9.187-2.85,15.914-10.588,16.26-18.706l6.079-142.423c-211.963,135.252-478.852,187.479-727.255,265.586
						L843.964,2538.945z" />
						<path style="fill:#FFFFFF;"
							d="M1199.265,2554.795l-25.33,15.73c0,0-120.251-53.327-127.451-56.526
						c-1.144-0.507-6.087-6.664,0-9.198c32.223-13.413,155.179-45.195,155.179-45.195l63.993,30.396L1199.265,2554.795z" />

						<linearGradient id="SVGID_00000060735966062252302510000008657915928201366183_"
							gradientUnits="userSpaceOnUse" x1="676.2457" y1="2446.9937" x2="475.0323" y2="2567.7219"
							gradientTransform="matrix(-1 0 0 1 1755.9615 0)">
							<stop offset="0" style="stop-color:#AA80F9" />
							<stop offset="0.9964" style="stop-color:#6165D7" />
						</linearGradient>
						<path style="fill:url(#SVGID_00000060735966062252302510000008657915928201366183_);" d="M1199.265,2545.595l-25.33,15.731
						c0,0-120.251-53.325-127.451-56.525c-7.199-3.2,155.179-54.393,155.179-54.393l63.993,30.396L1199.265,2545.595z" />
						<path style="fill:#FFFFFF;"
							d="M1324.314,2147.115c0,0,60.793,325.29,67.192,343.421c5.907,16.739-166.269,71.03-207.44,81.323
						c-3.424,0.857-8.525-0.643-10.131-1.333c-11.733,1.067,42.927-392.748,42.927-392.748l3.999-0.8L1324.314,2147.115z" />

						<linearGradient id="SVGID_00000107574740991930920620000003947157406397661848_"
							gradientUnits="userSpaceOnUse" x1="539.616" y1="2200.3977" x2="393.9748" y2="2813.6245"
							gradientTransform="matrix(-1 0 0 1 1755.9615 0)">
							<stop offset="0" style="stop-color:#AA80F9" />
							<stop offset="0.9964" style="stop-color:#6165D7" />
						</linearGradient>
						<path style="fill:url(#SVGID_00000107574740991930920620000003947157406397661848_);" d="M1324.314,2147.115
						c0,0,71.458,326.358,77.857,344.488c6.399,18.13-199.44,76.791-217.573,79.99c-11.73,1.067,36.262-394.615,36.262-394.615
						L1324.314,2147.115z" />
					</g>
				</g>
			</g>
			<g>
				<g>

					<linearGradient id="SVGID_00000047026066379345472830000009666834326648944771_"
						gradientUnits="userSpaceOnUse" x1="2222.8291" y1="1916.202" x2="2395.9624" y2="2365.5247">
						<stop offset="0" style="stop-color:#FFC444" />
						<stop offset="0.9964" style="stop-color:#F36F56" />
					</linearGradient>
					<path style="fill:url(#SVGID_00000047026066379345472830000009666834326648944771_);" d="M2477.658,2070.076
					c-28.499-33.859-102.713-74.03-189.79-74.03s-161.291,40.171-189.79,74.03h-12.476v26.167
					c0,34.083,90.558,61.713,202.266,61.713c111.708,0,202.266-27.63,202.266-61.713v-26.167H2477.658z" />

					<linearGradient id="SVGID_00000060746644290535222330000015969382283549302178_"
						gradientUnits="userSpaceOnUse" x1="2018.58" y1="1441.3165" x2="2452.8091" y2="2454.5176">
						<stop offset="0" style="stop-color:#FFC444" />
						<stop offset="0.9964" style="stop-color:#F36F56" />
					</linearGradient>
					<path style="fill:url(#SVGID_00000060746644290535222330000015969382283549302178_);" d="M2490.133,2070.076
					c0,34.083-90.558,61.712-202.266,61.712s-202.266-27.63-202.266-61.712c0-34.083,90.557-100.197,202.266-100.197
					S2490.133,2035.994,2490.133,2070.076z" />

					<linearGradient id="SVGID_00000004503604045138965200000002475176358470254479_"
						gradientUnits="userSpaceOnUse" x1="2122.4138" y1="1396.8164" x2="2556.6426" y2="2410.0161">
						<stop offset="0" style="stop-color:#FFC444" />
						<stop offset="0.9964" style="stop-color:#F36F56" />
					</linearGradient>
					<path style="fill:url(#SVGID_00000004503604045138965200000002475176358470254479_);"
						d="M2204.094,1660.559v77.874
					l44.619,267.97c3.187,19.143,19.748,33.174,39.154,33.174s35.967-14.031,39.154-33.174l44.619-267.97v-77.874H2204.094z" />

					<linearGradient id="SVGID_00000022555710264871855180000005095323048595855022_"
						gradientUnits="userSpaceOnUse" x1="1791.9945" y1="982.9106" x2="2794.8542" y2="982.9106">
						<stop offset="0" style="stop-color:#FFC444" />
						<stop offset="0.9964" style="stop-color:#F36F56" />
					</linearGradient>

					<ellipse style="fill:url(#SVGID_00000022555710264871855180000005095323048595855022_);" cx="2293.424"
						cy="982.911" rx="501.43" ry="218.723" />

					<linearGradient id="SVGID_00000134939291005386793840000017138362169305357454_"
						gradientUnits="userSpaceOnUse" x1="2271.658" y1="667.1165" x2="2337.6138" y2="1751.2606">
						<stop offset="0" style="stop-color:#FFC444" />
						<stop offset="0.9964" style="stop-color:#F36F56" />
					</linearGradient>

					<ellipse style="fill:url(#SVGID_00000134939291005386793840000017138362169305357454_);" cx="2293.424"
						cy="1024.9" rx="461.488" ry="201.3" />

					<linearGradient id="SVGID_00000129187398307367159440000017275175347488557977_"
						gradientUnits="userSpaceOnUse" x1="2569.4326" y1="1216.1764" x2="2831.3564" y2="1216.1764">
						<stop offset="0" style="stop-color:#FFC444" />
						<stop offset="0.9964" style="stop-color:#F36F56" />
					</linearGradient>
					<path style="fill:url(#SVGID_00000129187398307367159440000017275175347488557977_);" d="M2598.509,1397.178
					c-13.184,0-25.127-9.02-28.29-22.409c-3.696-15.637,5.984-31.311,21.621-35.008c44.898-10.611,84.509-32.312,114.552-62.758
					c31.383-31.803,84.482-102.885,60.817-144.267c-10.528-18.404-36.992-34.155-64.357-38.301
					c-19.267-2.924-35.576,0.298-44.725,8.834c-10.486,9.78-14.906,29.845-11.822,53.674c3.224,24.899,13.599,43.488,19.479,48.606
					c2.928-1.261,10.187-5.422,22.246-18.676c10.812-11.889,29.217-12.751,41.101-1.941c11.887,10.815,12.754,29.216,1.94,41.102
					c-9.157,10.066-34.788,38.231-66.238,38.234c-4.282,0-8.665-0.521-13.135-1.681c-26.499-6.879-48.584-35.708-59.083-77.12
					c-9.979-39.361-8.435-92.803,25.822-124.754c22.56-21.04,55.641-29.496,93.134-23.813c45.138,6.839,86.804,33.118,106.15,66.948
					c49.343,86.277-49.577,193.425-69.909,214.028c-37.73,38.236-87.036,65.387-142.585,78.515
					C2602.976,1396.924,2600.725,1397.178,2598.509,1397.178z" />

					<linearGradient id="SVGID_00000093161128113399802890000015786971358788329103_"
						gradientUnits="userSpaceOnUse" x1="2375.8101" y1="1288.218" x2="2810.0398" y2="2301.4199">
						<stop offset="0" style="stop-color:#FFC444" />
						<stop offset="0.9964" style="stop-color:#F36F56" />
					</linearGradient>
					<path style="fill:url(#SVGID_00000093161128113399802890000015786971358788329103_);" d="M2698.808,1052.176
					c0,81.436-181.496,689.747-405.384,689.747s-405.384-608.311-405.384-689.747c0-81.436,181.496-147.454,405.384-147.454
					S2698.808,970.74,2698.808,1052.176z" />

					<linearGradient id="SVGID_00000152971705153517323020000007449741704559759018_"
						gradientUnits="userSpaceOnUse" x1="1888.0406" y1="1333.1873" x2="2403.6174" y2="1333.1873">
						<stop offset="0" style="stop-color:#FFC444" />
						<stop offset="0.9964" style="stop-color:#F36F56" />
					</linearGradient>
					<path style="opacity:0.3;fill:url(#SVGID_00000152971705153517323020000007449741704559759018_);" d="M2398.511,1404.91
					c-24.052-177.876-257.258-201.377-307.808-354.529c-10.648-32.262-14.181-73.303,0.038-125.93
					c-121.17,25.495-202.701,73.145-202.701,127.724c0,81.436,181.497,689.746,405.384,689.746
					c38.196,0,75.156-17.715,110.193-47.489c-11.75-17.841-21.084-37.338-27.092-58.667
					C2350.268,1542.545,2411.477,1500.804,2398.511,1404.91z" />

					<linearGradient id="SVGID_00000178887688959221426240000006055529397476219307_"
						gradientUnits="userSpaceOnUse" x1="1737.0773" y1="1204.2126" x2="2021.6783" y2="1204.2126">
						<stop offset="0" style="stop-color:#FFC444" />
						<stop offset="0.9964" style="stop-color:#F36F56" />
					</linearGradient>
					<path style="fill:url(#SVGID_00000178887688959221426240000006055529397476219307_);" d="M1990.013,1400.828
					c-2.408,0-4.851-0.276-7.296-0.855c-60.343-14.262-113.903-43.754-154.889-85.288c-22.085-22.381-129.538-138.772-75.94-232.492
					c21.016-36.749,66.278-65.294,115.31-72.723c40.744-6.169,76.663,3.017,101.166,25.867
					c37.214,34.708,38.891,92.76,28.05,135.517c-11.404,44.984-35.396,76.301-64.178,83.772
					c-40.533,10.518-74.92-27.284-86.223-39.705c-11.746-12.911-10.803-32.9,2.108-44.647c12.912-11.745,32.901-10.8,44.647,2.108
					c13.1,14.398,20.983,18.917,24.164,20.288c6.388-5.558,17.659-25.752,21.16-52.797c3.351-25.886-1.449-47.683-12.841-58.307
					c-9.938-9.271-27.652-12.771-48.583-9.596c-29.728,4.504-58.475,21.613-69.908,41.605
					c-25.709,44.953,22.536,135.236,66.061,156.713c53.283,26.291,76.97,13.447,125.742,24.974
					c16.988,4.015,26.197,64.239,22.183,81.225C2017.307,1391.028,2004.333,1400.828,1990.013,1400.828z" />

					<linearGradient id="SVGID_00000112611951875524617140000015965445341747582377_"
						gradientUnits="userSpaceOnUse" x1="2422.3396" y1="1052.5793" x2="2228.5259" y2="1667.2443">
						<stop offset="0" style="stop-color:#FFC444" />
						<stop offset="0.9964" style="stop-color:#F36F56" />
					</linearGradient>

					<ellipse style="fill:url(#SVGID_00000112611951875524617140000015965445341747582377_);" cx="2363.719"
						cy="1238.49" rx="129.599" ry="182.985" />
				</g>

				<linearGradient id="SVGID_00000000195133116826222960000002401955861651439503_"
					gradientUnits="userSpaceOnUse" x1="1579.3541" y1="934.7212" x2="1584.8604" y2="837.811">
					<stop offset="0" style="stop-color:#FFC444" />
					<stop offset="0.9964" style="stop-color:#F36F56" />
				</linearGradient>
				<path style="fill:url(#SVGID_00000000195133116826222960000002401955861651439503_);" d="M1730.029,866.789
				c0,0-231.443-172.328-283.214-101.695C1395.045,835.727,1730.029,866.789,1730.029,866.789z" />

				<linearGradient id="SVGID_00000154413515844766677930000003788592719119936899_"
					gradientUnits="userSpaceOnUse" x1="1582.9814" y1="1063.0759" x2="1586.2402" y2="1005.7198">
					<stop offset="0" style="stop-color:#FFC444" />
					<stop offset="0.9964" style="stop-color:#F36F56" />
				</linearGradient>
				<path style="fill:url(#SVGID_00000154413515844766677930000003788592719119936899_);" d="M1691.843,963.76
				c0,0-225.266-28.456-206.673,30.473C1503.763,1053.162,1691.843,963.76,1691.843,963.76z" />

				<linearGradient id="SVGID_00000144333809853152653280000009513795219615012542_"
					gradientUnits="userSpaceOnUse" x1="2946.1047" y1="958.3907" x2="2952.3701" y2="848.1196">
					<stop offset="0" style="stop-color:#FFC444" />
					<stop offset="0.9964" style="stop-color:#F36F56" />
				</linearGradient>
				<path style="fill:url(#SVGID_00000144333809853152653280000009513795219615012542_);" d="M2865.803,866.789
				c0,0,112.301-148.255,167.214-102.601C3087.931,809.842,2865.803,866.789,2865.803,866.789z" />

				<linearGradient id="SVGID_00000021824188538775372830000003782855879767752626_"
					gradientUnits="userSpaceOnUse" x1="2948.6924" y1="1153.0273" x2="2954.5232" y2="1050.4042">
					<stop offset="0" style="stop-color:#FFC444" />
					<stop offset="0.9964" style="stop-color:#F36F56" />
				</linearGradient>
				<path style="fill:url(#SVGID_00000021824188538775372830000003782855879767752626_);" d="M2879.757,956.892
				c0,0,139.764,18.125,153.261,98.613C3046.515,1135.994,2879.757,956.892,2879.757,956.892z" />

				<linearGradient id="SVGID_00000039841755001111610630000006375281876996927149_"
					gradientUnits="userSpaceOnUse" x1="2809.8911" y1="916.9338" x2="2817.6128" y2="781.028">
					<stop offset="0" style="stop-color:#FFC444" />
					<stop offset="0.9964" style="stop-color:#F36F56" />
				</linearGradient>
				<path style="fill:url(#SVGID_00000039841755001111610630000006375281876996927149_);" d="M2770.845,807.442
				c0,0,5.782-157.639,77.873-142.287C2920.809,680.507,2770.845,807.442,2770.845,807.442z" />

				<linearGradient id="SVGID_00000111177905401573074670000011063458415325621898_"
					gradientUnits="userSpaceOnUse" x1="1761.7957" y1="906.0994" x2="1769.1283" y2="777.0424">
					<stop offset="0" style="stop-color:#FFC444" />
					<stop offset="0.9964" style="stop-color:#F36F56" />
				</linearGradient>
				<path style="fill:url(#SVGID_00000111177905401573074670000011063458415325621898_);" d="M1818.294,807.442
				c0,0-138.09-67.613-83.168-130.709C1790.048,613.638,1818.294,807.442,1818.294,807.442z" />
			</g>
			<g>

				<linearGradient id="SVGID_00000032648144541316101220000002134642656097699478_"
					gradientUnits="userSpaceOnUse" x1="941.6906" y1="774.2997" x2="1239.161" y2="1371.2513">
					<stop offset="0" style="stop-color:#FFC444" />
					<stop offset="0.9964" style="stop-color:#F36F56" />
				</linearGradient>
				<path style="fill:url(#SVGID_00000032648144541316101220000002134642656097699478_);" d="M1410.741,1310.973
				c0-103.156-95.153-183.687-208.487-180.001c-64.542,2.099-120.696,31.195-155.759,74.146c-0.004-0.013-0.009-0.025-0.013-0.037
				c-0.217,0.267-0.421,0.545-0.637,0.813c-0.606,0.751-1.192,1.517-1.786,2.277c-1.083,1.386-2.15,2.781-3.19,4.194
				c-0.614,0.835-1.219,1.676-1.818,2.52c-1,1.41-1.975,2.835-2.933,4.271c-0.547,0.822-1.101,1.64-1.635,2.47
				c-1.067,1.659-2.095,3.341-3.103,5.032c-0.366,0.612-0.75,1.214-1.107,1.83c-1.331,2.293-2.607,4.615-3.829,6.963
				c-0.324,0.623-0.621,1.259-0.937,1.886c-0.889,1.762-1.759,3.533-2.587,5.324c-0.406,0.878-0.79,1.766-1.181,2.651
				c-0.7,1.585-1.378,3.179-2.029,4.786c-0.378,0.933-0.749,1.868-1.11,2.808c-0.633,1.649-1.233,3.31-1.814,4.98
				c-0.304,0.873-0.618,1.742-0.908,2.621c-0.692,2.101-1.335,4.22-1.943,6.352c-0.126,0.445-0.273,0.883-0.396,1.329
				c-0.709,2.572-1.351,5.168-1.936,7.782c-0.173,0.769-0.314,1.548-0.475,2.321c-0.392,1.875-0.762,3.755-1.089,5.65
				c-0.165,0.965-0.312,1.934-0.461,2.904c-0.27,1.753-0.511,3.513-0.724,5.281c-0.12,0.992-0.236,1.984-0.337,2.981
				c-0.19,1.865-0.335,3.74-0.461,5.621c-0.058,0.875-0.133,1.746-0.178,2.624c-0.139,2.748-0.225,5.508-0.225,8.288
				c0,66.196,40.091,124.588,100.196,155.852c5.528,2.875,11.227,5.523,17.084,7.929c2.932,1.205,5.905,2.349,8.915,3.43
				c21.157,7.601,44.186,12.106,68.405,12.813l0,0l0,0c0.001,0,0.001,0,0.001,0c3.337,0.097,6.656,0.113,9.96,0.065
				c1.116-0.016,2.218-0.078,3.33-0.11c2.185-0.063,4.371-0.128,6.54-0.254c1.326-0.077,2.638-0.197,3.958-0.296
				c1.938-0.147,3.875-0.294,5.798-0.489c1.409-0.143,2.805-0.322,4.206-0.491c1.818-0.22,3.635-0.445,5.439-0.709
				c1.44-0.21,2.87-0.447,4.301-0.685c1.746-0.29,3.487-0.592,5.217-0.922c1.448-0.276,2.89-0.57,4.327-0.875
				c1.694-0.359,3.379-0.736,5.057-1.133c1.439-0.34,2.874-0.689,4.3-1.057c1.659-0.428,3.305-0.882,4.947-1.347
				c1.413-0.4,2.825-0.8,4.224-1.227c0.516-0.157,1.046-0.292,1.56-0.453c-0.012-0.013-0.022-0.025-0.034-0.038
				C1353.798,1457.084,1410.741,1390.501,1410.741,1310.973z" />

				<linearGradient id="SVGID_00000102531712337137493510000001360762878701273789_"
					gradientUnits="userSpaceOnUse" x1="1116.6238" y1="1166.3962" x2="1405.5587" y2="1702.2849">
					<stop offset="0" style="stop-color:#FFC444" />
					<stop offset="0.9964" style="stop-color:#F36F56" />
				</linearGradient>
				<path style="fill:url(#SVGID_00000102531712337137493510000001360762878701273789_);" d="M1395.167,1310.999
				c0,102.891-94.668,183.535-207.434,180.241c-108.565-3.171-193.651-83.524-193.651-179.578
				c0-96.054,85.085-176.688,193.651-180.218C1300.499,1127.776,1395.167,1208.108,1395.167,1310.999z" />
				<path style="fill:#FFFFFF;" d="M1174.762,1205.277l-30.376,55.89l-61.292,7.358c-8.839,1.061-13.023,12.087-7.081,18.695
				l41.393,46.04l-14.114,63.366c-2.075,9.317,6.96,17.031,15.313,13.023l57.67-27.671l55.969,33.969
				c8.307,5.042,18.535-1.793,17.268-11.555l-8.575-66.07l48.487-44.162c7.095-6.462,3.668-18.192-5.76-19.836l-63.649-11.101
				l-25.513-57.62C1190.834,1197.321,1179.182,1197.146,1174.762,1205.277z" />
				<g style="opacity:0.2;">

					<linearGradient id="SVGID_00000107571977059328518520000001610810831149338252_"
						gradientUnits="userSpaceOnUse" x1="1037.2758" y1="1202.0096" x2="1317.9679" y2="1765.2915">
						<stop offset="0" style="stop-color:#FFC444" />
						<stop offset="0.9964" style="stop-color:#F36F56" />
					</linearGradient>
					<path style="fill:url(#SVGID_00000107571977059328518520000001610810831149338252_);" d="M1236.775,1446.464
					c-24.47-53.873,0.269-103.654-32.771-138.207c-33.187-34.707-75.754-2.264-120.874-30.037
					c-17.255-10.621-36.319-30.943-50.407-72.859c-24.302,29.834-38.642,66.624-38.642,106.301
					c0,96.054,85.085,176.407,193.651,179.578c25.454,0.744,50.011-2.805,72.801-9.964
					C1249.274,1469.541,1241.844,1457.622,1236.775,1446.464z" />
				</g>
			</g>
			<g>

				<linearGradient id="SVGID_00000003099864229322916850000013886435229298243772_"
					gradientUnits="userSpaceOnUse" x1="1419.1326" y1="301.2028" x2="963.5832" y2="1440.0769">
					<stop offset="0" style="stop-color:#311944" />
					<stop offset="1" style="stop-color:#893976" />
				</linearGradient>
				<path style="fill:url(#SVGID_00000003099864229322916850000013886435229298243772_);" d="M1351.77,848.781
				c0,4.017,0.162,7.994-0.259,11.911c-0.181,1.687-0.211,3.355-0.472,5.001c-0.522,3.314-1.089,6.588-1.913,9.802
				c-0.402,1.607-0.796,3.213-1.258,4.8c-0.322,1.044-0.639,2.109-0.98,3.154c-8.195,24.545-24.875,45.816-47.109,61.684
				c-0.483,0.342-0.938,0.683-1.42,1.004c-7.653,5.343-15.926,10.023-24.744,14.02c-0.542,0.241-1.083,0.482-1.645,0.723
				c-3.877,1.707-7.853,3.274-11.93,4.7c-1.727,0.603-3.495,1.185-5.262,1.728c-1.185,0.381-2.37,0.743-3.575,1.085
				c-1.788,0.522-3.595,1.004-5.423,1.466c-1.205,0.301-2.43,0.603-3.655,0.884c-15.346,3.535-31.635,5.102-48.407,4.359
				c-1.245-0.061-2.491-0.121-3.716-0.201c-0.362-0.02-0.723-0.06-1.064-0.08c-0.101,0-0.201-0.02-0.302-0.02
				c-0.783-0.06-1.566-0.1-2.329-0.181c-0.402-0.04-0.784-0.06-1.165-0.1c-0.843-0.08-1.707-0.161-2.551-0.241
				c-0.362-0.04-0.723-0.101-1.085-0.141c-0.864-0.08-1.748-0.18-2.611-0.301c-0.322-0.04-0.623-0.08-0.945-0.121
				c-0.924-0.12-1.848-0.241-2.792-0.382c-0.221-0.04-0.462-0.08-0.702-0.121c-1.025-0.141-2.029-0.301-3.054-0.482
				c-0.14-0.02-0.281-1.44-0.401-1.461c-1.145-0.201-2.29-2.022-3.415-2.022h-0.02c-9.561,0-18.761-2.999-27.498-6.233
				c0.02-0.02,0.02,0.68,0.04,0.66c-2.731-1.004-5.424-1.739-8.075-2.884c-2.35-1.024-4.661-1.914-6.93-3.018
				c-1.104,0.884-2.39,1.895-3.816,2.879c-18.258-7.853-34.347-18.616-47.403-31.592c1.527-2.069,2.993-4.216,4.339-6.486
				c-18.821-21.452-29.868-47.814-29.868-75.914c0-67.388,63.531-123.945,145.362-126.415c2.672-0.08,4.617-0.098,7.248-0.058
				c80.183,1.024,147.531,54.255,149.998,122.868v0.081c0,0.864,0,1.748,0,2.631v0.402
				C1350.964,847.034,1351.77,847.898,1351.77,848.781z" />
				<g>

					<linearGradient id="SVGID_00000147191828613355208460000002073979144836354985_"
						gradientUnits="userSpaceOnUse" x1="1132.9711" y1="742.1393" x2="1342.5746" y2="1130.8916">
						<stop offset="0" style="stop-color:#FF9085" />
						<stop offset="1" style="stop-color:#FB6FBB" />
					</linearGradient>
					<path style="fill:url(#SVGID_00000147191828613355208460000002073979144836354985_);" d="M1341.629,848.319
					c0,71.968-69.617,127.525-152.994,126.481c-1.928-0.02-3.876-0.08-5.825-0.161c-1.767-0.08-3.535-0.18-5.282-0.321
					c-1.788-0.121-3.575-0.281-5.343-0.462c-0.361-0.04-0.723-0.06-1.085-0.121c-1.144-0.121-2.269-0.241-3.414-0.402
					c-1.125-0.141-2.23-0.281-3.354-0.462c-1.607-0.221-3.214-0.482-4.801-0.763c-0.964-0.18-1.908-0.341-2.852-0.522
					c-9.541-1.848-18.74-4.419-27.478-7.673c-2.691-1.004-5.323-2.049-7.914-3.174c-18.258-7.853-34.347-18.66-47.403-31.635
					c-22.798-22.576-36.435-51.661-36.435-82.894c0-67.388,63.531-123.95,145.361-126.421c6.367-0.201,12.655-0.06,18.861,0.402
					c66.534,4.806,121.996,45.596,136.328,100.218c0.002,0.007,0.004,0.014,0.006,0.022c0.36,1.374,0.698,2.754,1.006,4.146
					c0.1,0.448,0.189,0.899,0.283,1.35c0.23,1.106,0.463,2.212,0.659,3.328c0.292,1.639,0.554,3.286,0.772,4.945
					c-0.021,0.02,0,0.04,0,0.081c0.08,0.622,0.161,1.265,0.221,1.888c0.101,0.783,0.181,1.567,0.241,2.35
					c0.08,0.864,0.161,1.747,0.201,2.611c0.02,0.261,0.04,0.542,0.06,0.803c0.061,1.004,0.101,2.009,0.121,3.013
					C1341.609,846.07,1341.629,847.194,1341.629,848.319z" />

					<linearGradient id="SVGID_00000025435226938546583190000014480494150837459085_"
						gradientUnits="userSpaceOnUse" x1="1132.9711" y1="742.1393" x2="1342.5746" y2="1130.8916">
						<stop offset="0" style="stop-color:#FF9085" />
						<stop offset="1" style="stop-color:#FB6FBB" />
					</linearGradient>
					<path style="fill:url(#SVGID_00000025435226938546583190000014480494150837459085_);" d="M1341.629,848.319
					c0,71.968-69.617,127.525-152.994,126.481c-1.928-0.02-3.876-0.08-5.825-0.161c-1.767-0.08-3.535-0.18-5.282-0.321
					c-1.788-0.121-3.575-0.281-5.343-0.462c-0.361-0.04-0.723-0.06-1.085-0.121c-1.144-0.121-2.269-0.241-3.414-0.402
					c-1.125-0.141-2.23-0.281-3.354-0.462c-1.607-0.221-3.214-0.482-4.801-0.763c-0.964-0.18-1.908-0.341-2.852-0.522
					c-9.541-1.848-18.74-4.419-27.478-7.673c-2.691-1.004-5.323-2.049-7.914-3.174c-18.258-7.853-34.347-18.66-47.403-31.635
					c-22.798-22.576-36.435-51.661-36.435-82.894c0-67.388,63.531-123.95,145.361-126.421c6.367-0.201,12.655-0.06,18.861,0.402
					c66.534,4.806,121.996,45.596,136.328,100.218c0.002,0.007,0.004,0.014,0.006,0.022c0.36,1.374,0.698,2.754,1.006,4.146
					c0.1,0.448,0.189,0.899,0.283,1.35c0.23,1.106,0.463,2.212,0.659,3.328c0.292,1.639,0.554,3.286,0.772,4.945
					c-0.021,0.02,0,0.04,0,0.081c0.08,0.622,0.161,1.265,0.221,1.888c0.101,0.783,0.181,1.567,0.241,2.35
					c0.08,0.864,0.161,1.747,0.201,2.611c0.02,0.261,0.04,0.542,0.06,0.803c0.061,1.004,0.101,2.009,0.121,3.013
					C1341.609,846.07,1341.629,847.194,1341.629,848.319z" />
					<g>
						<path style="fill:#FFFFFF;" d="M1099.455,813.145L1099.455,813.145c6.152-17.541,21.52-30.132,39.679-30.351
						c23.979-0.288,43.669,21.062,43.669,47.692c0-26.629,19.918-48.456,44.81-48.755c19.331-0.232,36.026,12.559,42.797,30.886l0,0
						c25.948,66.145-87.608,124.18-87.608,124.18S1076.302,875.327,1099.455,813.145z" />
					</g>
					<g style="opacity:0.3;">

						<linearGradient id="SVGID_00000078752978706550196310000013508197288125950380_"
							gradientUnits="userSpaceOnUse" x1="-1560.5383" y1="764.3364" x2="-1355.0841" y2="1176.6338"
							gradientTransform="matrix(-1 0 0 1 -258.321 0)">
							<stop offset="0" style="stop-color:#FF9085" />
							<stop offset="1" style="stop-color:#FB6FBB" />
						</linearGradient>
						<path style="fill:url(#SVGID_00000078752978706550196310000013508197288125950380_);" d="M1146.341,940.917
						c18.019-36.804-0.197-72.036,24.209-95.943c25.156-24.641,58.405-1.394,94.914-21.784c14.321-7.998,30.382-23.408,42.415-55.24
						c21.094,22.025,33.745,49.944,33.745,80.36c0,73.636-72.889,130.115-158.822,126.327c-19.098-0.842-37.168-4.602-53.635-10.691
						C1137.268,956.379,1142.651,948.453,1146.341,940.917z" />
					</g>
				</g>
			</g>
			<g>

				<linearGradient id="SVGID_00000177483095621222043990000007206294100526279350_"
					gradientUnits="userSpaceOnUse" x1="682.9606" y1="1011.277" x2="883.8782" y2="1058.7379">
					<stop offset="0" style="stop-color:#311944" />
					<stop offset="1" style="stop-color:#893976" />
				</linearGradient>
				<path style="fill:url(#SVGID_00000177483095621222043990000007206294100526279350_);" d="M816.055,936.877
				c66.169,2.031,121.742,42.43,132.571,93.57c0.014,0.067,0.027,0.134,0.042,0.201c0.586,2.799,1.038,5.63,1.35,8.489
				c0.021,0.189,0.043,0.377,0.063,0.566c0.137,1.336,0.243,2.678,0.319,4.026c0.014,0.244,0.023,0.489,0.035,0.734
				c0.066,1.377,0.109,2.758,0.109,4.147c0,59.428-60.654,104.465-134.489,100.643c-1.964-0.102-3.915-0.244-5.858-0.412
				c-0.19-0.017-0.381-0.03-0.571-0.047c-1.838-0.166-3.664-0.365-5.481-0.589c-0.282-0.035-0.566-0.068-0.848-0.104
				c-1.758-0.225-3.505-0.48-5.241-0.76c-0.327-0.052-0.654-0.105-0.981-0.16c-1.704-0.284-3.397-0.593-5.078-0.927
				c-0.341-0.068-0.68-0.139-1.02-0.209c-1.673-0.344-3.336-0.708-4.985-1.1c-0.32-0.076-0.636-0.157-0.955-0.235
				c-1.638-0.4-3.267-0.819-4.879-1.266c-0.289-0.081-0.576-0.166-0.865-0.248c-1.452-0.412-2.892-0.843-4.322-1.293
				c-0.363-0.114-0.728-0.223-1.089-0.339c-1.451-0.467-2.886-0.96-4.313-1.465c-0.308-0.109-0.624-0.206-0.931-0.316
				c0.004-0.004,0.008-0.007,0.011-0.011c-49.081-17.704-83.588-57.549-83.588-102.108
				C685.061,979.78,743.286,934.643,816.055,936.877z" />
				<g>

					<linearGradient id="SVGID_00000096058232481014735430000004725836776220090762_"
						gradientUnits="userSpaceOnUse" x1="-1108.7367" y1="956.7264" x2="-936.4883" y2="1276.1962"
						gradientTransform="matrix(-1 0 0 1 -258.321 0)">
						<stop offset="0.0036" style="stop-color:#E38DDD" />
						<stop offset="1" style="stop-color:#9571F6" />
					</linearGradient>
					<path style="fill:url(#SVGID_00000096058232481014735430000004725836776220090762_);" d="M671.052,1037.664
					c0,57.884,58.225,107.822,130.994,111.589c73.835,3.822,134.489-41.215,134.489-100.643
					c0-59.428-60.654-109.466-134.489-111.733C729.277,934.643,671.052,979.78,671.052,1037.664z" />
					<path style="fill:#FFFFFF;" d="M754.798,1019.458c0,16.996,19.788,57.418,33.764,83.856c5.821,11.012,21.16,11.753,27.006,1.276
					c14.09-25.253,34.175-64.266,34.175-81.423c0-26.475-21.41-48.673-47.695-49.576
					C775.897,972.693,754.798,993.23,754.798,1019.458z M776.623,1020.31c0-14.112,11.367-25.137,25.424-24.624
					c14.096,0.515,25.552,12.432,25.552,26.616c0,14.184-11.456,25.205-25.552,24.619
					C787.99,1046.336,776.623,1034.422,776.623,1020.31z" />
					<g style="opacity:0.3;">

						<linearGradient id="SVGID_00000002382848003376941340000005495364566490135681_"
							gradientUnits="userSpaceOnUse" x1="-1159.2238" y1="977.834" x2="-990.429" y2="1316.5645"
							gradientTransform="matrix(-1 0 0 1 -258.321 0)">
							<stop offset="0" style="stop-color:#FF9085" />
							<stop offset="1" style="stop-color:#FB6FBB" />
						</linearGradient>
						<path style="fill:url(#SVGID_00000002382848003376941340000005495364566490135681_);" d="M769.926,1120.629
						c15.934-30.526-0.174-60.488,21.381-79.804c21.993-19.709,50.716,0.627,81.811-14.982
						c12.073-6.061,25.531-18.061,35.557-43.484c17.46,18.695,27.861,41.704,27.861,66.251c0,59.429-60.654,104.465-134.489,100.643
						c-16.764-0.868-32.748-4.184-47.418-9.47C761.857,1133.503,766.648,1126.907,769.926,1120.629z" />
					</g>
				</g>
			</g>
			<g>
				<g>

					<linearGradient id="SVGID_00000150802731137312593150000017085793693218055052_"
						gradientUnits="userSpaceOnUse" x1="2333.8875" y1="2151.655" x2="2762.0657" y2="2603.0408"
						gradientTransform="matrix(1 0 0 1 -208.2705 0)">
						<stop offset="0" style="stop-color:#FFC444" />
						<stop offset="0.9964" style="stop-color:#F36F56" />
					</linearGradient>
					<polygon style="fill:url(#SVGID_00000150802731137312593150000017085793693218055052_);" points="2431.827,2314.04 
					2046.516,2305.791 2046.515,2230.026 2431.827,2236.937 				" />
					<polygon style="fill:#FFFFFF;"
						points="2060.443,2292.221 2060.443,2244.144 2417.419,2250.774 2417.419,2299.637 				" />

					<linearGradient id="SVGID_00000049180351342729213580000001720239482958582961_"
						gradientUnits="userSpaceOnUse" x1="2600.7581" y1="2216.585" x2="2798.9111" y2="2425.4778"
						gradientTransform="matrix(1 0 0 1 -208.2705 0)">
						<stop offset="0" style="stop-color:#FFC444" />
						<stop offset="0.9964" style="stop-color:#F36F56" />
					</linearGradient>
					<polygon style="fill:url(#SVGID_00000049180351342729213580000001720239482958582961_);" points="2508.98,2315.653 
					2355.206,2312.361 2408.785,2202.67 2508.98,2204.313 				" />
					<polygon style="fill:#FFFFFF;"
						points="2377.872,2298.776 2417.886,2216.914 2494.473,2218.219 2494.473,2301.198 				" />
					<polygon style="fill:#FFFFFF;"
						points="2095.81,2285.663 2070.67,2285.149 2070.67,2251.618 2095.81,2252.094 				" />
					<polygon style="fill:#FFFFFF;"
						points="2129.972,2286.361 2104.753,2285.846 2104.753,2252.263 2129.972,2252.74 				" />
					<polygon style="fill:#FFFFFF;"
						points="2164.24,2287.062 2138.942,2286.544 2138.942,2252.909 2164.24,2253.387 				" />

					<linearGradient id="SVGID_00000021112598836732326430000002939617392462199195_"
						gradientUnits="userSpaceOnUse" x1="3706.4475" y1="2270.6609" x2="3731.8247" y2="2270.6609"
						gradientTransform="matrix(-1 0 0 1 5905.063 0)">
						<stop offset="0" style="stop-color:#FFC444" />
						<stop offset="0.9964" style="stop-color:#F36F56" />
					</linearGradient>
					<polygon style="fill:url(#SVGID_00000021112598836732326430000002939617392462199195_);" points="2198.615,2287.764 
					2173.238,2287.246 2173.238,2253.557 2198.615,2254.037 				" />

					<linearGradient id="SVGID_00000167359645922477229180000001506877853093430451_"
						gradientUnits="userSpaceOnUse" x1="2498.387" y1="2204.1545" x2="2327.7646" y2="2368.5093"
						gradientTransform="matrix(1 0 0 1 -208.2705 0)">
						<stop offset="0" style="stop-color:#FFC444" />
						<stop offset="0.9964" style="stop-color:#F36F56" />
					</linearGradient>
					<polygon style="fill:url(#SVGID_00000167359645922477229180000001506877853093430451_);" points="2233.099,2288.469 
					2207.642,2287.949 2207.642,2254.208 2233.099,2254.689 				" />

					<linearGradient id="SVGID_00000167376082824548254860000013270438763786504348_"
						gradientUnits="userSpaceOnUse" x1="2515.4336" y1="2221.6965" x2="2344.4263" y2="2386.4224"
						gradientTransform="matrix(1 0 0 1 -208.2705 0)">
						<stop offset="0" style="stop-color:#FFC444" />
						<stop offset="0.9964" style="stop-color:#F36F56" />
					</linearGradient>
					<polygon style="fill:url(#SVGID_00000167376082824548254860000013270438763786504348_);" points="2267.691,2289.177 
					2242.154,2288.654 2242.154,2254.86 2267.691,2255.343 				" />

					<linearGradient id="SVGID_00000120548692512770647850000002895700345066374290_"
						gradientUnits="userSpaceOnUse" x1="2532.5098" y1="2239.3171" x2="2361.1162" y2="2404.4148"
						gradientTransform="matrix(1 0 0 1 -208.2705 0)">
						<stop offset="0" style="stop-color:#FFC444" />
						<stop offset="0.9964" style="stop-color:#F36F56" />
					</linearGradient>
					<polygon style="fill:url(#SVGID_00000120548692512770647850000002895700345066374290_);" points="2302.392,2289.886 
					2276.775,2289.362 2276.775,2255.515 2302.392,2255.999 				" />

					<linearGradient id="SVGID_00000083046756744391581920000010766850682415839117_"
						gradientUnits="userSpaceOnUse" x1="2549.6157" y1="2257.0166" x2="2377.8347" y2="2422.4875"
						gradientTransform="matrix(1 0 0 1 -208.2705 0)">
						<stop offset="0" style="stop-color:#FFC444" />
						<stop offset="0.9964" style="stop-color:#F36F56" />
					</linearGradient>
					<polygon style="fill:url(#SVGID_00000083046756744391581920000010766850682415839117_);" points="2337.203,2290.597 
					2311.504,2290.072 2311.504,2256.171 2337.203,2256.657 				" />
				</g>
			</g>
			<g>

				<linearGradient id="SVGID_00000054256112102678879400000010433085155875548039_"
					gradientUnits="userSpaceOnUse" x1="4155.7109" y1="1560.3455" x2="4590.207" y2="2018.3915"
					gradientTransform="matrix(-1 0 0 1 5905.063 0)">
					<stop offset="0" style="stop-color:#AA80F9" />
					<stop offset="0.9964" style="stop-color:#6165D7" />
				</linearGradient>
				<polygon style="fill:url(#SVGID_00000054256112102678879400000010433085155875548039_);" points="1430.162,1717.1 
				1836.699,1725.804 1836.698,1646.587 1430.162,1639.295 			" />
				<polygon style="fill:#FFFFFF;"
					points="1821.493,1710.997 1821.492,1660.796 1444.853,1653.801 1444.853,1703.173 			" />

				<linearGradient id="SVGID_00000174603440357319133310000006055406294808052654_"
					gradientUnits="userSpaceOnUse" x1="4434.9966" y1="1619.502" x2="4631.4263" y2="1826.5782"
					gradientTransform="matrix(-1 0 0 1 5905.063 0)">
					<stop offset="0" style="stop-color:#AA80F9" />
					<stop offset="0.9964" style="stop-color:#6165D7" />
				</linearGradient>
				<polygon style="fill:url(#SVGID_00000174603440357319133310000006055406294808052654_);" points="1352.143,1715.391 
				1508.729,1718.743 1453.675,1605.484 1352.143,1603.817 			" />
				<polygon style="fill:#FFFFFF;"
					points="1485.374,1703.975 1444.376,1619.573 1366.73,1618.249 1366.73,1701.51 			" />
				<polygon style="fill:#FFFFFF;"
					points="1783.057,1702.609 1810.352,1703.167 1810.352,1668.188 1783.057,1667.672 			" />
				<polygon style="fill:#FFFFFF;"
					points="1746.172,1701.855 1773.379,1702.411 1773.379,1667.488 1746.172,1666.974 			" />
				<polygon style="fill:#FFFFFF;"
					points="1709.406,1701.104 1736.525,1701.658 1736.525,1666.792 1709.406,1666.279 			" />
				<polygon style="fill:#FFFFFF;"
					points="1672.759,1700.354 1699.79,1700.907 1699.79,1666.097 1672.759,1665.586 			" />

				<linearGradient id="SVGID_00000096753465708875495110000005657072891147769519_"
					gradientUnits="userSpaceOnUse" x1="4329.23" y1="1611.35" x2="4148.4678" y2="1785.4719"
					gradientTransform="matrix(-1 0 0 1 5905.063 0)">
					<stop offset="0" style="stop-color:#AA80F9" />
					<stop offset="0.9964" style="stop-color:#6165D7" />
				</linearGradient>
				<polygon style="fill:url(#SVGID_00000096753465708875495110000005657072891147769519_);" points="1636.231,1699.608 
				1663.175,1700.158 1663.175,1665.405 1636.231,1664.896 			" />

				<linearGradient id="SVGID_00000067954288283760613350000009206896969677829299_"
					gradientUnits="userSpaceOnUse" x1="4346.8853" y1="1628.7416" x2="4166.5459" y2="1802.4563"
					gradientTransform="matrix(-1 0 0 1 5905.063 0)">
					<stop offset="0" style="stop-color:#AA80F9" />
					<stop offset="0.9964" style="stop-color:#6165D7" />
				</linearGradient>
				<polygon style="fill:url(#SVGID_00000067954288283760613350000009206896969677829299_);" points="1599.82,1698.864 
				1626.677,1699.412 1626.677,1664.715 1599.82,1664.207 			" />

				<linearGradient id="SVGID_00000018235942911755139330000014191556076631383222_"
					gradientUnits="userSpaceOnUse" x1="4364.5103" y1="1646.0509" x2="4184.5913" y2="1819.3608"
					gradientTransform="matrix(-1 0 0 1 5905.063 0)">
					<stop offset="0" style="stop-color:#AA80F9" />
					<stop offset="0.9964" style="stop-color:#6165D7" />
				</linearGradient>
				<polygon style="fill:url(#SVGID_00000018235942911755139330000014191556076631383222_);" points="1563.526,1698.122 
				1590.297,1698.669 1590.297,1664.027 1563.526,1663.521 			" />

				<linearGradient id="SVGID_00000040568887430495265870000011014530692727674293_"
					gradientUnits="userSpaceOnUse" x1="4382.106" y1="1663.2789" x2="4202.6069" y2="1836.1844"
					gradientTransform="matrix(-1 0 0 1 5905.063 0)">
					<stop offset="0" style="stop-color:#AA80F9" />
					<stop offset="0.9964" style="stop-color:#6165D7" />
				</linearGradient>
				<polygon style="fill:url(#SVGID_00000040568887430495265870000011014530692727674293_);" points="1527.349,1697.382 
				1554.034,1697.928 1554.034,1663.342 1527.349,1662.838 			" />
			</g>
		</g>
	</g>
</svg>